<svg width="165" height="19" viewBox="0 0 165 19" fill="none" xmlns="http://www.w3.org/2000/svg">
<path d="M9.432 18.36C6.904 18.36 4.808 17.528 3.144 15.864C1.496 14.2 0.672 12.112 0.672 9.6C0.672 7.088 1.496 5.008 3.144 3.36C4.792 1.68 6.888 0.839999 9.432 0.839999C10.952 0.839999 12.36 1.2 13.656 1.92C14.952 2.64 15.968 3.608 16.704 4.824L12.984 6.96C12.664 6.368 12.184 5.904 11.544 5.568C10.92 5.216 10.216 5.04 9.432 5.04C8.104 5.04 7.016 5.464 6.168 6.312C5.352 7.16 4.944 8.256 4.944 9.6C4.944 10.976 5.352 12.08 6.168 12.912C7 13.744 8.088 14.16 9.432 14.16C10.216 14.16 10.92 13.992 11.544 13.656C12.184 13.304 12.664 12.824 12.984 12.216L16.704 14.376C15.968 15.608 14.952 16.584 13.656 17.304C12.376 18.008 10.968 18.36 9.432 18.36ZM32.2434 15.84C30.5314 17.52 28.4514 18.36 26.0034 18.36C23.5234 18.36 21.4354 17.52 19.7394 15.84C18.0434 14.144 17.1954 12.064 17.1954 9.6C17.1954 7.136 18.0434 5.064 19.7394 3.384C21.4354 1.688 23.5234 0.839999 26.0034 0.839999C28.4674 0.839999 30.5474 1.688 32.2434 3.384C33.9554 5.064 34.8114 7.136 34.8114 9.6C34.8114 12.048 33.9554 14.128 32.2434 15.84ZM22.7634 12.888C23.6434 13.736 24.7234 14.16 26.0034 14.16C27.2834 14.16 28.3634 13.736 29.2434 12.888C30.1074 12.024 30.5394 10.928 30.5394 9.6C30.5394 8.256 30.1074 7.168 29.2434 6.336C28.3794 5.472 27.2994 5.04 26.0034 5.04C24.7074 5.04 23.6274 5.472 22.7634 6.336C21.8994 7.168 21.4674 8.256 21.4674 9.6C21.4674 10.928 21.8994 12.024 22.7634 12.888ZM45.1766 18H40.0646L34.6406 1.2H39.3446L42.6086 12.768L45.8966 1.2H50.6006L45.1766 18ZM51.9216 18V1.2H56.2176V18H51.9216ZM58.8591 1.2H65.6991C68.0031 1.2 69.9391 2.008 71.5071 3.624C73.0751 5.24 73.8591 7.232 73.8591 9.6C73.8591 11.984 73.0751 13.984 71.5071 15.6C69.9551 17.2 68.0191 18 65.6991 18H58.8591V1.2ZM63.2751 13.848H65.6991C66.8511 13.848 67.8031 13.464 68.5551 12.696C69.2911 11.912 69.6591 10.88 69.6591 9.6C69.6591 8.304 69.2911 7.28 68.5551 6.528C67.8191 5.744 66.8671 5.352 65.6991 5.352H63.2751V13.848ZM75.8513 18V1.2H80.1473V18H75.8513ZM92.0528 9.648V1.2H96.3248V18H93.0128L87.0848 9.552V18H82.7888V1.2H86.1248L92.0528 9.648ZM109.304 1.2V5.352H103.28V8.088H109.184V12.24H103.28V18H98.9841V1.2H109.304ZM125.923 15.84C124.211 17.52 122.131 18.36 119.683 18.36C117.203 18.36 115.115 17.52 113.419 15.84C111.723 14.144 110.875 12.064 110.875 9.6C110.875 7.136 111.723 5.064 113.419 3.384C115.115 1.688 117.203 0.839999 119.683 0.839999C122.147 0.839999 124.227 1.688 125.923 3.384C127.635 5.064 128.491 7.136 128.491 9.6C128.491 12.048 127.635 14.128 125.923 15.84ZM116.443 12.888C117.323 13.736 118.403 14.16 119.683 14.16C120.963 14.16 122.043 13.736 122.923 12.888C123.787 12.024 124.219 10.928 124.219 9.6C124.219 8.256 123.787 7.168 122.923 6.336C122.059 5.472 120.979 5.04 119.683 5.04C118.387 5.04 117.307 5.472 116.443 6.336C115.579 7.168 115.147 8.256 115.147 9.6C115.147 10.928 115.579 12.024 116.443 12.888ZM131.449 18.336C130.745 18.336 130.145 18.096 129.649 17.616C129.169 17.12 128.929 16.528 128.929 15.84C128.929 15.152 129.177 14.568 129.673 14.088C130.169 13.592 130.761 13.344 131.449 13.344C132.137 13.344 132.721 13.592 133.201 14.088C133.697 14.568 133.945 15.152 133.945 15.84C133.945 16.528 133.697 17.12 133.201 17.616C132.721 18.096 132.137 18.336 131.449 18.336ZM146.834 9.312C148.242 10.144 148.946 11.4 148.946 13.08C148.946 14.584 148.434 15.776 147.41 16.656C146.37 17.552 145.002 18 143.306 18H136.226V1.2H142.85C144.546 1.2 145.89 1.632 146.882 2.496C147.89 3.344 148.394 4.504 148.394 5.976C148.394 7.384 147.874 8.496 146.834 9.312ZM142.73 5.04H140.522V7.68H142.73C143.13 7.68 143.458 7.568 143.714 7.344C143.97 7.104 144.098 6.776 144.098 6.36C144.098 5.96 143.97 5.64 143.714 5.4C143.458 5.16 143.13 5.04 142.73 5.04ZM140.522 14.16H143.186C143.618 14.16 143.97 14.032 144.242 13.776C144.514 13.504 144.65 13.16 144.65 12.744C144.65 12.312 144.514 11.968 144.242 11.712C143.97 11.456 143.618 11.328 143.186 11.328H140.522V14.16ZM159.3 1.2H164.124L158.46 11.544V18H154.164V11.592L148.5 1.2H153.324L156.3 7.416L159.3 1.2Z" fill="#E95068"/>
</svg>
