<svg width="23" height="15" viewBox="0 0 23 15" fill="none" xmlns="http://www.w3.org/2000/svg">
<path d="M10.444 5.18144C10.444 8.05571 6.05679 12.6698 4.5818 14.2583C4.01461 14.8635 3.06913 14.8635 2.50162 14.296L2.4639 14.2583C1.93443 13.7288 1.93443 12.859 2.42617 12.2916C3.06908 11.6487 3.63656 10.93 4.16604 10.2494C1.89669 9.72021 0.119141 7.64002 0.119141 5.18157C0.119141 2.34506 2.42617 0.000271027 5.30044 0.000271027C8.17491 0.000271027 10.444 2.30717 10.444 5.18144ZM17.6298 0.000134998C14.7933 0.000134998 12.4485 2.30717 12.4485 5.18144C12.4485 7.67764 14.2261 9.75782 16.5709 10.2493C16.0037 10.9679 15.4362 11.6486 14.831 12.2914C14.3015 12.8586 14.3393 13.6907 14.8687 14.2582L14.9065 14.2959C15.4737 14.9011 16.4191 14.8631 16.9866 14.2582C18.4616 12.7075 22.8488 8.05564 22.8488 5.1813C22.8111 2.30703 20.504 0.000134998 17.6298 0.000134998Z" fill="white"/>
</svg>
