<svg width="310" height="152" viewBox="0 0 310 152" fill="none" xmlns="http://www.w3.org/2000/svg">
<mask id="mask0_307_207" style="mask-type:alpha" maskUnits="userSpaceOnUse" x="58" y="-27" width="180" height="179">
<circle cx="148.272" cy="62.5" r="89.5" fill="white"/>
</mask>
<g mask="url(#mask0_307_207)">
<path fill-rule="evenodd" clip-rule="evenodd" d="M151.248 50.3555H82.9337C74.2091 50.3555 67.0752 56.6153 67.0752 64.2711C67.0752 71.9268 74.2091 78.1866 82.9337 78.1866H151.248C159.972 78.1866 167.106 71.9268 167.106 64.2711C167.106 56.6239 159.972 50.3555 151.248 50.3555Z" fill="#EA6371" fill-opacity="0.35"/>
<path fill-rule="evenodd" clip-rule="evenodd" d="M205.296 85.0434H136.983C128.258 85.0434 121.124 91.0311 121.124 98.354C121.124 105.677 128.258 111.665 136.983 111.665H205.296C214.021 111.665 221.155 105.677 221.155 98.354C221.155 91.0311 214.021 85.0434 205.296 85.0434Z" fill="#EA6371" fill-opacity="0.35"/>
<path d="M99.684 98.2688C108.932 98.2688 116.428 90.7669 116.428 81.5127C116.428 72.2586 108.932 64.7567 99.684 64.7567C90.4362 64.7567 82.9395 72.2586 82.9395 81.5127C82.9395 90.7669 90.4362 98.2688 99.684 98.2688Z" fill="#7D482E"/>
<path fill-rule="evenodd" clip-rule="evenodd" d="M92.5775 55.0042C88.4622 55.0042 85.1583 57.5475 84.0342 61.1471C85.5493 58.4963 88.4036 56.7356 91.8248 56.7356C92.2158 56.7356 92.6068 56.7551 92.988 56.804C87.9735 57.2247 84.0342 61.4308 84.0342 66.5564C84.0342 71.9657 88.4134 76.3479 93.8189 76.3479C99.2245 76.3479 103.604 71.9657 103.604 66.5564C103.604 65.187 103.32 63.886 102.812 62.7024C101.473 58.3006 97.2695 55.0042 92.5775 55.0042Z" fill="#7D482E"/>
<path d="M164.688 71.9852C178.028 71.9852 188.842 61.1637 188.842 47.8146C188.842 34.4655 178.028 23.644 164.688 23.644C151.348 23.644 140.534 34.4655 140.534 47.8146C140.534 61.1637 151.348 71.9852 164.688 71.9852Z" fill="#7D482E"/>
<path d="M166.379 92.7028C181.095 92.7028 193.026 80.7645 193.026 66.0379C193.026 51.3112 181.095 39.3729 166.379 39.3729C151.662 39.3729 139.732 51.3112 139.732 66.0379C139.732 80.7645 151.662 92.7028 166.379 92.7028Z" fill="#7D482E"/>
<path d="M126.36 115.612C141.681 115.612 154.101 103.183 154.101 87.8513C154.101 72.5196 141.681 60.0908 126.36 60.0908C111.038 60.0908 98.6182 72.5196 98.6182 87.8513C98.6182 103.183 111.038 115.612 126.36 115.612Z" fill="#7D482E"/>
<path fill-rule="evenodd" clip-rule="evenodd" d="M135.304 66.3609C119.986 66.3609 107.562 78.7935 107.562 94.1214C107.562 101.556 110.485 108.305 115.236 113.294C118.638 114.79 122.401 115.612 126.36 115.612C141.677 115.612 154.101 103.179 154.101 87.8513C154.101 80.4172 151.178 73.6678 146.428 68.6792C143.016 67.1923 139.253 66.3609 135.304 66.3609Z" fill="#703F26"/>
<path d="M148.177 91.4897C165.523 91.4897 179.584 77.4186 179.584 60.061C179.584 42.7035 165.523 28.6324 148.177 28.6324C130.832 28.6324 116.771 42.7035 116.771 60.061C116.771 77.4186 130.832 91.4897 148.177 91.4897Z" fill="#703F26"/>
<path fill-rule="evenodd" clip-rule="evenodd" d="M160.376 74.3037H144.58C128.373 74.3037 115.118 87.5677 115.118 103.786V152H189.828V103.786C189.838 87.5775 176.583 74.3037 160.376 74.3037Z" fill="#FF7F48"/>
<path fill-rule="evenodd" clip-rule="evenodd" d="M125.295 81.5517C119.078 86.9708 115.129 94.9331 115.129 103.786V152H129.43V85.9535C128.198 84.3493 126.82 82.8722 125.295 81.5517Z" fill="#FF5F1B"/>
<path fill-rule="evenodd" clip-rule="evenodd" d="M130.827 78.1572C124.502 75.839 117.494 79.0865 115.167 85.4153L99.3123 128.269C96.9956 134.598 100.241 141.611 106.565 143.939C112.89 146.258 119.898 143.01 122.225 136.681L138.08 93.8276C140.406 87.489 137.151 80.4755 130.827 78.1572Z" fill="#FF7F48"/>
<path fill-rule="evenodd" clip-rule="evenodd" d="M191.139 85.4152C188.822 79.0865 181.814 75.8389 175.479 78.1572C169.155 80.4755 165.91 87.4889 168.226 93.8275L184.081 136.681C186.398 143.01 193.407 146.257 199.741 143.939C206.065 141.621 209.311 134.607 206.994 128.269L191.139 85.4152Z" fill="#FF7F48"/>
<path d="M152.4 111.181C174.14 111.181 191.764 101.09 191.764 88.6435C191.764 76.1966 174.14 66.1064 152.4 66.1064C130.66 66.1064 113.036 76.1966 113.036 88.6435C113.036 101.09 130.66 111.181 152.4 111.181Z" fill="#FFEA9F"/>
<path fill-rule="evenodd" clip-rule="evenodd" d="M171.051 80.2019H159.888C157.121 80.2019 154.854 82.4713 154.854 85.2395V111.141C162.801 110.858 170.112 109.234 176.085 106.652V85.2395C176.085 82.4713 173.817 80.2019 171.051 80.2019Z" fill="#FCCF8D"/>
<path fill-rule="evenodd" clip-rule="evenodd" d="M128.715 70.6453C119.194 74.7536 113.036 81.2878 113.036 88.6437C113.036 94.0823 116.399 99.071 122.01 102.964C136.78 100.44 147.913 93.0944 149.819 84.105C145.685 78.4903 138.148 73.6287 128.715 70.6453Z" fill="#FFEA9F"/>
<path fill-rule="evenodd" clip-rule="evenodd" d="M128.716 70.6453C125.129 72.1908 122.02 74.0885 119.537 76.2405C118.677 77.8642 118.218 79.5858 118.218 81.3661C118.218 91.1282 132.04 99.0416 149.097 99.0416C150.143 99.0416 151.179 99.0123 152.196 98.9536C152.694 97.7994 153.026 96.5864 153.183 95.3344C154.434 85.3668 144.102 75.4971 128.716 70.6453Z" fill="#FFEA9F"/>
<path fill-rule="evenodd" clip-rule="evenodd" d="M175.322 79.5853H164.159C161.393 79.5853 159.125 81.8547 159.125 84.6229V151.559C159.125 151.706 159.135 151.853 159.145 151.999H180.337C180.346 151.853 180.356 151.706 180.356 151.559V84.6229C180.356 81.8547 178.088 79.5853 175.322 79.5853Z" fill="#FFEA9F"/>
<path fill-rule="evenodd" clip-rule="evenodd" d="M152.4 66.1064C141.423 66.1064 131.502 68.679 124.366 72.8265C123.261 74.6067 122.655 76.524 122.655 78.5194C122.655 87.9197 135.969 95.5494 152.4 95.5494C168.822 95.5494 182.146 87.9295 182.146 78.5194C182.146 76.524 181.54 74.6067 180.435 72.8265C173.299 68.679 163.378 66.1064 152.4 66.1064Z" fill="#EDC653"/>
<path d="M152.4 97.5546C169.454 97.5546 183.279 89.641 183.279 79.879C183.279 70.1171 169.454 62.2035 152.4 62.2035C135.346 62.2035 121.521 70.1171 121.521 79.879C121.521 89.641 135.346 97.5546 152.4 97.5546Z" fill="#FCDAA7"/>
<path fill-rule="evenodd" clip-rule="evenodd" d="M142.01 63.2303C130.075 65.6758 121.531 72.21 121.531 79.8788C121.531 86.3152 127.543 91.9495 136.526 95.0405C148.461 92.5951 157.014 86.0609 157.014 78.392C156.995 71.9556 150.993 66.3214 142.01 63.2303Z" fill="#FCCF8D"/>
<path fill-rule="evenodd" clip-rule="evenodd" d="M142.01 63.2303C130.133 65.6562 121.619 72.1317 121.531 79.7517C127.162 83.185 135.158 85.3272 144.033 85.3272C148.031 85.3272 151.853 84.8968 155.353 84.1045C156.418 82.3145 157.005 80.3875 157.005 78.392C156.995 71.9556 150.993 66.3214 142.01 63.2303Z" fill="#FFEA9F"/>
<path fill-rule="evenodd" clip-rule="evenodd" d="M152.4 62.2035C143.788 62.2035 136.008 64.2185 130.407 67.4758C129.537 68.8746 129.067 70.381 129.067 71.9461C129.067 79.3215 139.517 85.2981 152.4 85.2981C165.284 85.2981 175.733 79.3215 175.733 71.9461C175.733 70.381 175.264 68.8746 174.394 67.4758C168.793 64.2185 161.012 62.2035 152.4 62.2035Z" fill="#FFCE20"/>
<path fill-rule="evenodd" clip-rule="evenodd" d="M152.4 62.2035C143.788 62.2035 136.008 64.2185 130.407 67.4758C129.537 68.8746 129.067 70.381 129.067 71.9461C129.067 78.5976 137.572 84.1145 148.696 85.1318C163.133 83.8798 174.296 76.8956 174.873 68.3562C174.726 68.053 174.56 67.7595 174.384 67.4758C168.793 64.2185 161.012 62.2035 152.4 62.2035Z" fill="#FFEA9F"/>
<path fill-rule="evenodd" clip-rule="evenodd" d="M152.479 58.2028C146.751 58.2028 142.068 62.8882 142.068 68.6203V71.8189C142.068 77.551 146.751 82.2364 152.479 82.2364C158.207 82.2364 162.889 77.551 162.889 71.8189V68.6203C162.899 62.8882 158.217 58.2028 152.479 58.2028Z" fill="#D98E77"/>
<path fill-rule="evenodd" clip-rule="evenodd" d="M152.479 2.75995C136.106 2.75995 122.714 16.1609 122.714 32.5453V36.8394C122.714 53.2238 136.106 66.6248 152.479 66.6248C168.852 66.6248 182.243 53.2238 182.243 36.8394V32.5453C182.243 16.1609 168.852 2.75995 152.479 2.75995Z" fill="#703F26"/>
<path d="M127.865 49.0959C131.293 49.0959 134.072 46.2011 134.072 42.6302C134.072 39.0593 131.293 36.1645 127.865 36.1645C124.437 36.1645 121.658 39.0593 121.658 42.6302C121.658 46.2011 124.437 49.0959 127.865 49.0959Z" fill="#FFD5C3"/>
<path d="M127.866 45.7504C129.518 45.7504 130.857 44.3534 130.857 42.6301C130.857 40.9067 129.518 39.5097 127.866 39.5097C126.214 39.5097 124.875 40.9067 124.875 42.6301C124.875 44.3534 126.214 45.7504 127.866 45.7504Z" fill="#FFC2AE"/>
<path d="M177.102 49.0957C180.53 49.0957 183.309 46.2009 183.309 42.63C183.309 39.0591 180.53 36.1643 177.102 36.1643C173.674 36.1643 170.895 39.0591 170.895 42.63C170.895 46.2009 173.674 49.0957 177.102 49.0957Z" fill="#FFCEBF"/>
<path d="M177.102 45.7503C178.754 45.7503 180.094 44.3532 180.094 42.6299C180.094 40.9066 178.754 39.5095 177.102 39.5095C175.451 39.5095 174.111 40.9066 174.111 42.6299C174.111 44.3532 175.451 45.7503 177.102 45.7503Z" fill="#FFC2AE"/>
<path fill-rule="evenodd" clip-rule="evenodd" d="M152.479 13.2754C138.383 13.2754 126.858 24.808 126.858 38.9133V51.5023C126.858 65.5978 138.383 77.1402 152.479 77.1402C166.564 77.1402 178.099 65.6076 178.099 51.5023V38.9133C178.099 24.8178 166.574 13.2754 152.479 13.2754Z" fill="#FFDFD5"/>
<path fill-rule="evenodd" clip-rule="evenodd" d="M170.299 20.5334C166.291 17.9315 161.521 16.4055 156.409 16.4055C154.483 16.4055 152.606 16.6207 150.808 17.0315C162.225 19.6041 170.827 29.8652 170.827 42.0434V54.6324C170.827 63.7588 165.998 71.8091 158.774 76.3478C169.849 73.5307 178.109 63.4262 178.109 51.4925V38.9132C178.099 31.7237 175.108 25.1993 170.299 20.5334Z" fill="#FFD5C4"/>
<path fill-rule="evenodd" clip-rule="evenodd" d="M158.089 13.9014C156.281 13.4906 154.404 13.2754 152.488 13.2754C138.403 13.2754 126.868 24.808 126.868 38.9133V51.5023C126.868 65.6076 138.393 77.1402 152.488 77.1402C154.414 77.1402 156.291 76.925 158.089 76.5142C146.672 73.9416 138.07 63.6806 138.07 51.5023V38.9133C138.07 26.735 146.672 16.474 158.089 13.9014Z" fill="#FFDFD4"/>
<path fill-rule="evenodd" clip-rule="evenodd" d="M126.868 38.9135V45.3596C130.416 43.6087 132.88 39.9406 132.88 35.7344V30.4719C132.88 28.359 132.264 26.3831 131.198 24.7104C128.461 28.7796 126.868 33.6705 126.868 38.9135Z" fill="#703F26"/>
<path fill-rule="evenodd" clip-rule="evenodd" d="M145.216 11.446C138.774 11.446 129.947 17.2857 125.49 24.485C121.033 31.6844 122.636 37.524 129.077 37.524C135.519 37.524 144.346 31.6844 148.803 24.485C153.261 17.2857 151.648 11.446 145.216 11.446Z" fill="#703F26"/>
<path fill-rule="evenodd" clip-rule="evenodd" d="M156.055 4.423C148.04 4.96099 146.036 12.669 151.588 21.629C157.141 30.5891 168.137 37.4167 176.163 36.8787C184.178 36.3407 186.182 28.6327 180.63 19.6727C175.068 10.7029 164.071 3.87522 156.055 4.423Z" fill="#7D482E"/>
<path fill-rule="evenodd" clip-rule="evenodd" d="M147.335 43.2643L134.778 43.6048C137.119 49.0291 145.784 50.329 147.335 43.2643Z" fill="#FFC2AE"/>
<path fill-rule="evenodd" clip-rule="evenodd" d="M147.335 43.2643L134.778 43.4728C139.347 48.5689 145.784 47.5729 147.335 43.2643Z" fill="#FFDCD2"/>
<path fill-rule="evenodd" clip-rule="evenodd" d="M134.778 43.3527C136.646 45.6491 138.842 46.7571 140.854 46.9097C140.264 45.8659 139.799 44.5731 139.703 43.2643L134.778 43.3527Z" fill="#FFC9B9"/>
<path fill-rule="evenodd" clip-rule="evenodd" d="M134.778 43.669L147.335 43.404C145.933 36.5043 137.224 39.2328 134.778 43.669Z" fill="#FFDCD2"/>
<path fill-rule="evenodd" clip-rule="evenodd" d="M134.903 43.5989L139.879 43.4913C139.791 42.073 139.986 40.6253 140.661 39.3536C138.315 39.8916 135.979 41.5643 134.903 43.5989Z" fill="#FFC9B9"/>
<path fill-rule="evenodd" clip-rule="evenodd" d="M134.903 43.5989C138.442 45.4183 144.747 45.7704 146.917 43.325C145.617 40.1166 137.249 41.5545 134.903 43.5989Z" fill="#FFEFEC"/>
<path fill-rule="evenodd" clip-rule="evenodd" d="M138.461 41.985C138.344 42.4252 138.285 42.8752 138.285 43.3545C138.285 43.8436 138.354 44.3229 138.471 44.7728C141.716 45.3891 145.362 45.0663 146.907 43.3251C146.017 41.1145 141.775 41.1145 138.461 41.985Z" fill="#FFEBE7"/>
<path fill-rule="evenodd" clip-rule="evenodd" d="M143.183 41.4664C142.029 41.3979 140.739 41.5055 139.507 41.75C139.146 42.1902 138.931 42.7478 138.931 43.364C138.931 43.9607 139.136 44.5085 139.478 44.9389C140.856 45.115 142.254 45.115 143.496 44.9193C143.828 44.4889 144.023 43.9509 144.023 43.364C144.023 42.6108 143.701 41.9261 143.183 41.4664Z" fill="#633A26"/>
<path d="M141.482 44.8901C142.33 44.8901 143.017 44.2026 143.017 43.3544C143.017 42.5062 142.33 41.8187 141.482 41.8187C140.634 41.8187 139.947 42.5062 139.947 43.3544C139.947 44.2026 140.634 44.8901 141.482 44.8901Z" fill="#4D2C1B"/>
<path fill-rule="evenodd" clip-rule="evenodd" d="M141.276 43.9024C141.159 43.8632 141.061 43.785 141.003 43.6872C140.934 43.5893 140.895 43.4817 140.895 43.3546V43.3057C140.905 43.1394 140.788 42.9927 140.612 42.9731C140.445 42.9633 140.299 43.0807 140.279 43.2568C140.279 43.2861 140.279 43.3252 140.279 43.3546C140.279 43.5991 140.357 43.8437 140.494 44.0393C140.631 44.2349 140.827 44.3914 141.061 44.4795C141.218 44.5382 141.394 44.4599 141.452 44.2936C141.521 44.1371 141.433 43.9611 141.276 43.9024Z" fill="#80513A"/>
<path fill-rule="evenodd" clip-rule="evenodd" d="M146.868 42.425C145.939 41.3588 144.141 40.9675 142.166 41.0066C139.39 41.0653 136.194 42.4641 134.903 43.5988C136.976 42.6793 138.637 41.9652 142.186 41.887C143.916 41.8478 145.47 42.1609 146.203 43.0021C146.33 43.1488 146.428 43.3053 146.506 43.4912C146.594 43.7162 146.858 43.8237 147.083 43.7357C147.308 43.6477 147.415 43.3836 147.327 43.1586C147.21 42.8847 147.054 42.6402 146.868 42.425Z" fill="#633A26"/>
<path fill-rule="evenodd" clip-rule="evenodd" d="M170.016 43.605L157.865 43.2645C159.366 50.3292 167.751 49.0293 170.016 43.605Z" fill="#FFC2AE"/>
<path fill-rule="evenodd" clip-rule="evenodd" d="M170.016 43.473L157.865 43.2645C159.366 47.5731 165.595 48.5691 170.016 43.473Z" fill="#FFDCD2"/>
<path fill-rule="evenodd" clip-rule="evenodd" d="M163.941 46.9099C165.954 46.7573 168.15 45.6493 170.017 43.3528L165.093 43.2645C164.996 44.5733 164.532 45.8661 163.941 46.9099Z" fill="#FFC9B9"/>
<path fill-rule="evenodd" clip-rule="evenodd" d="M157.865 43.4043L170.016 43.6693C167.65 39.2331 159.222 36.5046 157.865 43.4043Z" fill="#FFDCD2"/>
<path fill-rule="evenodd" clip-rule="evenodd" d="M164.315 39.3538C164.98 40.6254 165.185 42.0731 165.097 43.4915L170.073 43.5991C168.988 41.5645 166.652 39.8918 164.315 39.3538Z" fill="#FFC9B9"/>
<path fill-rule="evenodd" clip-rule="evenodd" d="M158.06 43.3252C160.23 45.7706 166.525 45.4184 170.073 43.599C167.717 41.5547 159.35 40.1168 158.06 43.3252Z" fill="#FFEFEC"/>
<path fill-rule="evenodd" clip-rule="evenodd" d="M158.06 43.3253C159.604 45.0762 163.25 45.3893 166.495 44.773C166.613 44.323 166.681 43.8437 166.681 43.3547C166.681 42.8851 166.622 42.4254 166.505 41.9852C163.191 41.1146 158.949 41.1146 158.06 43.3253Z" fill="#FFEBE7"/>
<path fill-rule="evenodd" clip-rule="evenodd" d="M161.785 41.4662C161.267 41.9357 160.944 42.6106 160.944 43.354C160.944 43.9409 161.14 44.4789 161.472 44.9093C162.714 45.1147 164.111 45.105 165.49 44.9289C165.832 44.4985 166.037 43.9507 166.037 43.354C166.037 42.7476 165.822 42.1802 165.46 41.74C164.229 41.5053 162.948 41.3879 161.785 41.4662Z" fill="#633A26"/>
<path d="M163.486 44.89C164.333 44.89 165.021 44.2024 165.021 43.3543C165.021 42.5061 164.333 41.8185 163.486 41.8185C162.638 41.8185 161.951 42.5061 161.951 43.3543C161.951 44.2024 162.638 44.89 163.486 44.89Z" fill="#4D2C1B"/>
<path fill-rule="evenodd" clip-rule="evenodd" d="M164.345 42.9824C164.179 42.9922 164.052 43.139 164.062 43.315V43.3639C164.062 43.4911 164.023 43.5987 163.954 43.6965C163.886 43.7943 163.788 43.8628 163.681 43.9117C163.524 43.9704 163.446 44.1465 163.495 44.303C163.554 44.4595 163.73 44.5377 163.886 44.4888C164.121 44.4008 164.316 44.2443 164.453 44.0487C164.59 43.853 164.668 43.6183 164.668 43.3639C164.668 43.3346 164.668 43.3052 164.668 43.2661C164.658 43.09 164.512 42.9727 164.345 42.9824Z" fill="#80513A"/>
<path fill-rule="evenodd" clip-rule="evenodd" d="M158.099 42.4247C157.914 42.6497 157.757 42.8942 157.65 43.1583C157.562 43.3833 157.669 43.6376 157.894 43.7354C158.119 43.8235 158.373 43.7159 158.471 43.4909C158.549 43.305 158.647 43.1485 158.774 43.0018C159.507 42.1606 161.061 41.8476 162.791 41.8867C166.34 41.9649 168.001 42.679 170.074 43.5985C168.783 42.4638 165.587 41.065 162.811 41.0063C160.827 40.9574 159.028 41.3585 158.099 42.4247Z" fill="#633A26"/>
<path fill-rule="evenodd" clip-rule="evenodd" d="M155.01 63.1524H149.947C149.048 63.1524 148.314 63.886 148.314 64.786C148.314 65.6859 149.048 66.4195 149.947 66.4195H155.01C155.91 66.4195 156.643 65.6859 156.643 64.786C156.643 63.886 155.91 63.1524 155.01 63.1524Z" fill="#EA6371"/>
<path fill-rule="evenodd" clip-rule="evenodd" d="M152.328 44.884C151.122 45.2209 151.027 48.1624 149.881 50.4752C149.14 51.9797 150.752 52.2491 152.328 52.1593C153.904 52.2491 155.516 51.9797 154.775 50.4752C153.641 48.1512 153.534 45.2096 152.328 44.884Z" fill="#FFC2AE"/>
<path fill-rule="evenodd" clip-rule="evenodd" d="M172.097 30.4719V35.7344C172.097 39.9406 174.55 43.6087 178.108 45.3596V38.9135C178.108 33.6705 176.515 28.7796 173.788 24.7104C172.712 26.3733 172.097 28.3492 172.097 30.4719Z" fill="#7D482E"/>
<path fill-rule="evenodd" clip-rule="evenodd" d="M180.21 47.795C182.37 51.9033 183.367 56.755 182.849 61.9589C181.353 76.6804 168.216 88.6239 153.505 88.6239C148.656 88.6239 144.238 87.3229 140.543 85.0633C144.492 92.5659 152.341 97.5643 161.852 97.5643C176.564 97.5643 189.701 85.6307 191.197 70.8994C192.194 61.0199 187.707 52.4022 180.21 47.795Z" fill="#7D482E"/>
<path fill-rule="evenodd" clip-rule="evenodd" d="M189.379 65.7545C184.951 79.8598 168.226 91.2946 152.029 91.2946C149.272 91.2946 146.701 90.962 144.365 90.3458C148.676 94.816 154.805 97.5549 161.853 97.5549C176.564 97.5549 189.702 85.6212 191.197 70.8899C191.549 67.4468 191.226 64.1601 190.347 61.1473C190.19 62.6439 189.868 64.1797 189.379 65.7545Z" fill="#824E34"/>
<path fill-rule="evenodd" clip-rule="evenodd" d="M176.671 60.6875C177.981 62.7417 178.587 65.1871 178.275 67.789C177.365 75.1742 169.399 81.1606 160.474 81.1606C157.532 81.1606 154.854 80.5053 152.615 79.3706C155.01 83.1365 159.771 85.6406 165.548 85.6406C174.472 85.6406 182.448 79.6542 183.348 72.2691C183.944 67.3293 181.227 63.0058 176.671 60.6875Z" fill="#7D482E"/>
<path fill-rule="evenodd" clip-rule="evenodd" d="M145.05 28.0847C139.537 34.6971 130.28 40.0575 124.366 40.0575C118.452 40.0575 118.13 34.6971 123.633 28.0847C123.956 27.7032 124.278 27.3217 124.62 26.95C123.604 27.9282 122.646 28.9357 121.776 29.9824C115.774 37.1817 116.136 43.0214 122.568 43.0214C129.009 43.0214 139.087 37.1817 145.089 29.9824C148.911 25.3947 150.153 21.3549 148.892 19.0366C149.331 21.2375 148.061 24.4753 145.05 28.0847Z" fill="#703F26"/>
<path d="M162.38 150.709C170.256 150.709 176.642 144.319 176.642 136.437C176.642 128.555 170.256 122.166 162.38 122.166C154.503 122.166 148.118 128.555 148.118 136.437C148.118 144.319 154.503 150.709 162.38 150.709Z" fill="#FCB39C"/>
<path fill-rule="evenodd" clip-rule="evenodd" d="M158.754 127.438L147.669 126.411C141.423 125.844 135.9 130.451 135.333 136.711C134.766 142.971 139.37 148.488 145.626 149.056L156.711 150.083C162.957 150.65 168.48 146.043 169.047 139.782C169.604 133.532 165 128.005 158.754 127.438Z" fill="white"/>
<path fill-rule="evenodd" clip-rule="evenodd" d="M148.471 134.774C148.5 135.224 148.881 135.567 149.331 135.537L168.206 134.373C167.972 133.826 167.708 133.297 167.395 132.798L149.233 133.923C148.783 133.943 148.441 134.324 148.471 134.774Z" fill="#E05A67"/>
<path fill-rule="evenodd" clip-rule="evenodd" d="M147.884 131.898L165.821 130.793C165.264 130.226 164.648 129.717 163.984 129.277L147.787 130.275C147.337 130.304 146.995 130.686 147.024 131.136C147.054 131.576 147.435 131.918 147.884 131.898Z" fill="#E05A67"/>
<path fill-rule="evenodd" clip-rule="evenodd" d="M146.78 143.236C146.652 143.666 146.887 144.116 147.317 144.253L162.742 148.977C163.387 148.655 164.003 148.273 164.58 147.843L147.786 142.698C147.356 142.561 146.907 142.805 146.78 143.236Z" fill="#FF7F48"/>
<path fill-rule="evenodd" clip-rule="evenodd" d="M148.392 141.631C148.314 142.071 148.617 142.492 149.057 142.57L166.779 145.622C167.131 145.153 167.453 144.654 167.737 144.135L149.331 140.966C148.891 140.898 148.47 141.191 148.392 141.631Z" fill="#FF7F48"/>
<path fill-rule="evenodd" clip-rule="evenodd" d="M149.643 136.349C149.194 136.349 148.832 136.711 148.822 137.151C148.822 137.601 149.184 137.963 149.624 137.973L169.056 138.168C169.027 137.62 168.959 137.073 168.851 136.544L149.643 136.349Z" fill="#E05A67"/>
<path fill-rule="evenodd" clip-rule="evenodd" d="M148.49 138.902C148.442 139.352 148.754 139.753 149.204 139.802L168.588 142.1C168.744 141.582 168.871 141.054 168.949 140.506L149.399 138.188C148.95 138.129 148.549 138.452 148.49 138.902Z" fill="#E05A67"/>
<path fill-rule="evenodd" clip-rule="evenodd" d="M155.694 126.137L112.352 120.385C105.686 119.515 99.5664 124.22 98.7062 130.891C97.8362 137.562 102.538 143.685 109.205 144.546L152.547 150.298C159.213 151.168 165.332 146.463 166.193 139.792C167.063 133.121 162.361 127.008 155.694 126.137Z" fill="#FF9568"/>
<path fill-rule="evenodd" clip-rule="evenodd" d="M99.1265 128.934C98.931 129.56 98.7844 130.215 98.6964 130.89C97.8265 137.562 102.528 143.685 109.195 144.546L109.468 144.585C109.762 143.479 109.928 142.296 109.928 141.083C109.928 134.373 105.089 128.934 99.1265 128.934Z" fill="#FF7F48"/>
<path d="M153.867 142.267C161.744 142.267 168.129 135.877 168.129 127.995C168.129 120.113 161.744 113.724 153.867 113.724C145.991 113.724 139.605 120.113 139.605 127.995C139.605 135.877 145.991 142.267 153.867 142.267Z" fill="#FBBEAC"/>
<path fill-rule="evenodd" clip-rule="evenodd" d="M169.018 118.605L157.933 117.578C151.687 117.01 146.164 121.617 145.597 127.878C145.03 134.128 149.634 139.655 155.89 140.222L166.975 141.249C173.221 141.817 178.744 137.209 179.311 130.949C179.878 124.699 175.274 119.162 169.018 118.605Z" fill="white"/>
<path fill-rule="evenodd" clip-rule="evenodd" d="M166.144 128.767C166.192 128.317 165.88 127.916 165.43 127.867L146.046 125.569C145.89 126.087 145.763 126.615 145.685 127.163L165.234 129.481C165.684 129.53 166.095 129.208 166.144 128.767Z" fill="#FF7F48"/>
<path fill-rule="evenodd" clip-rule="evenodd" d="M166.241 126.029C166.319 125.589 166.016 125.168 165.576 125.09L147.854 122.038C147.503 122.507 147.18 123.006 146.896 123.525L165.303 126.694C165.743 126.772 166.163 126.469 166.241 126.029Z" fill="#FF7F48"/>
<path fill-rule="evenodd" clip-rule="evenodd" d="M165.811 130.499C165.811 130.049 165.45 129.688 165.01 129.678L145.577 129.482C145.606 130.03 145.675 130.578 145.782 131.106L165.01 131.302C165.44 131.311 165.802 130.949 165.811 130.499Z" fill="#FF7F48"/>
<path fill-rule="evenodd" clip-rule="evenodd" d="M166.759 135.772L148.822 136.877C149.379 137.444 149.995 137.953 150.66 138.393L166.857 137.395C167.307 137.366 167.649 136.985 167.62 136.535C167.59 136.085 167.199 135.742 166.759 135.772Z" fill="#FF7F48"/>
<path fill-rule="evenodd" clip-rule="evenodd" d="M167.316 123.417L151.891 118.693C151.246 119.016 150.63 119.397 150.054 119.828L166.847 124.973C167.277 125.1 167.727 124.865 167.864 124.435C167.991 124.004 167.746 123.545 167.316 123.417Z" fill="#FF7F48"/>
<path fill-rule="evenodd" clip-rule="evenodd" d="M166.163 132.886C166.134 132.436 165.753 132.093 165.303 132.123L146.428 133.287C146.662 133.835 146.926 134.363 147.239 134.862L165.401 133.737C165.851 133.717 166.193 133.336 166.163 132.886Z" fill="#FF7F48"/>
<path fill-rule="evenodd" clip-rule="evenodd" d="M196.633 120.336L164.659 117.382C157.963 116.775 152.039 121.715 151.433 128.416C150.827 135.116 155.763 141.044 162.459 141.65L194.433 144.604C201.129 145.211 207.053 140.271 207.659 133.57C208.265 126.87 203.328 120.942 196.633 120.336Z" fill="#FF9568"/>
<path fill-rule="evenodd" clip-rule="evenodd" d="M195.079 144.643C201.501 144.888 207.063 140.056 207.65 133.571C207.669 133.306 207.689 133.042 207.699 132.778C207.112 132.671 206.506 132.602 205.88 132.602C199.957 132.602 195.138 137.982 195.079 144.643Z" fill="#FF7F48"/>
<path fill-rule="evenodd" clip-rule="evenodd" d="M143.447 35.5581C142.86 35.9298 140.944 36.8689 138.686 37.3384C137.347 37.6221 135.891 37.7297 134.571 37.446C134.131 37.3482 133.701 37.6318 133.603 38.072C133.506 38.5122 133.789 38.9426 134.229 39.0404C135.793 39.3828 137.474 39.2556 139.019 38.9328C141.501 38.4144 143.652 37.3579 144.317 36.9373C144.698 36.7026 144.805 36.1939 144.571 35.8124C144.326 35.4407 143.828 35.3233 143.447 35.5581Z" fill="#7D482E"/>
<path fill-rule="evenodd" clip-rule="evenodd" d="M170.386 37.4462C169.066 37.7397 167.62 37.6223 166.271 37.3386C164.013 36.8691 162.097 35.93 161.51 35.5583C161.129 35.3236 160.631 35.4312 160.386 35.8127C160.152 36.1942 160.259 36.693 160.64 36.9376C161.305 37.3582 163.456 38.4146 165.938 38.933C167.483 39.2558 169.164 39.383 170.728 39.0406C171.168 38.9428 171.452 38.5124 171.354 38.0722C171.266 37.6321 170.826 37.3484 170.386 37.4462Z" fill="#7D482E"/>
<path fill-rule="evenodd" clip-rule="evenodd" d="M180.161 110.417C179.614 109.791 178.666 109.713 178.03 110.261C177.405 110.809 177.326 111.758 177.874 112.393L179.145 113.851C179.692 114.477 180.64 114.555 181.276 114.007C181.901 113.46 181.979 112.511 181.432 111.875L180.161 110.417Z" fill="#FFEFC0"/>
<path fill-rule="evenodd" clip-rule="evenodd" d="M161.393 105.673C160.768 105.126 159.81 105.194 159.262 105.83L157.991 107.287C157.444 107.913 157.512 108.872 158.148 109.42C158.773 109.968 159.731 109.899 160.279 109.263L161.55 107.806C162.087 107.18 162.019 106.221 161.393 105.673Z" fill="#FFEFC0"/>
<path fill-rule="evenodd" clip-rule="evenodd" d="M188.265 96.8602C187.717 96.2341 186.769 96.1559 186.134 96.7037C185.508 97.2514 185.43 98.2003 185.977 98.8361L187.248 100.294C187.796 100.92 188.744 100.998 189.379 100.45C190.005 99.9023 190.083 98.9534 189.535 98.3176L188.265 96.8602Z" fill="#FFEFC0"/>
<path fill-rule="evenodd" clip-rule="evenodd" d="M134.698 105.488C134.072 104.94 133.114 105.008 132.567 105.644L131.296 107.102C130.749 107.728 130.817 108.686 131.452 109.234C132.078 109.782 133.036 109.713 133.583 109.078L134.854 107.62C135.392 106.984 135.323 106.035 134.698 105.488Z" fill="#FFE9A9"/>
<path fill-rule="evenodd" clip-rule="evenodd" d="M117.054 80.799L115.49 79.6643C114.815 79.1752 113.877 79.3219 113.378 79.9969C112.89 80.6718 113.036 81.6108 113.711 82.1097L115.275 83.2444C115.949 83.7335 116.887 83.5867 117.386 82.9118C117.875 82.2369 117.728 81.2978 117.054 80.799Z" fill="#FFF3D0"/>
<path fill-rule="evenodd" clip-rule="evenodd" d="M127.963 69.7841L126.399 68.6494C125.724 68.1604 124.786 68.3071 124.287 68.982C123.799 69.657 123.945 70.596 124.62 71.0949L126.184 72.2296C126.858 72.7186 127.797 72.5719 128.295 71.897C128.784 71.222 128.637 70.2732 127.963 69.7841Z" fill="#FFF3D0"/>
<path fill-rule="evenodd" clip-rule="evenodd" d="M158.617 23.771C153.064 14.8109 155.068 7.10292 163.084 6.56493C163.993 6.50624 164.941 6.53558 165.909 6.65296C162.497 5.05854 159.066 4.21732 156.055 4.42273C148.04 4.96073 146.036 12.6687 151.588 21.6288C156.515 29.5715 165.723 35.8416 173.328 36.7806C167.668 34.1298 162.087 29.3661 158.617 23.771Z" fill="#703F26"/>
<path fill-rule="evenodd" clip-rule="evenodd" d="M165.245 11.9157C161.032 12.1994 159.976 16.249 162.899 20.954C165.812 25.659 171.598 29.2489 175.811 28.9652C180.024 28.6816 181.08 24.6319 178.157 19.9269C175.235 15.2121 169.458 11.6223 165.245 11.9157Z" fill="#824E34"/>
<path fill-rule="evenodd" clip-rule="evenodd" d="M152.328 49.3398C150.265 49.3398 149.29 51.4846 149.29 53.3284C149.29 55.3664 150.653 57.0356 152.328 57.0356C153.997 57.0356 155.366 55.3664 155.366 53.3284C155.366 51.4943 154.391 49.3398 152.328 49.3398Z" fill="#FFC2AE"/>
<path fill-rule="evenodd" clip-rule="evenodd" d="M152.322 55.9562C150.771 55.9562 149.49 55.1865 149.309 54.1998C149.296 54.3116 149.29 54.4169 149.29 54.5221C149.29 55.9036 150.653 57.035 152.328 57.035C153.997 57.035 155.366 55.9036 155.366 54.5221C155.366 54.4169 155.359 54.305 155.347 54.1998C155.153 55.1865 153.872 55.9562 152.322 55.9562Z" fill="#FFC9B9"/>
<circle cx="130.155" cy="34.2247" r="2.47176" fill="white"/>
<circle cx="130.156" cy="34.2244" r="1.33095" fill="#EA6371"/>
</g>
<path d="M100.196 104.949C106.815 104.949 112.181 104.01 112.181 102.852C112.181 101.694 106.815 100.755 100.196 100.755C93.5768 100.755 88.2109 101.694 88.2109 102.852C88.2109 104.01 93.5768 104.949 100.196 104.949Z" fill="white"/>
<path d="M102.515 92.6499V72.6141C102.515 71.9989 102.271 71.4089 101.836 70.9739C101.401 70.5389 100.811 70.2946 100.196 70.2946C99.5807 70.2946 98.9907 70.5389 98.5557 70.9739C98.1207 71.4089 97.8763 71.9989 97.8763 72.6141V92.6499C96.7216 93.1792 95.7826 94.0874 95.2152 95.2239C94.6478 96.3603 94.4861 97.6567 94.757 98.8977C95.0278 100.139 95.7149 101.25 96.7043 102.046C97.6936 102.843 98.9256 103.278 100.196 103.278C101.466 103.278 102.698 102.843 103.687 102.046C104.677 101.25 105.364 100.139 105.635 98.8977C105.906 97.6567 105.744 96.3603 105.177 95.2239C104.609 94.0874 103.67 93.1792 102.515 92.6499Z" fill="white"/>
<path d="M100.195 103.418C98.901 103.418 97.6452 102.978 96.6339 102.17C95.6227 101.362 94.9161 100.234 94.6302 98.9716C94.3443 97.7092 94.4961 96.3871 95.0605 95.2223C95.625 94.0575 96.5687 93.1192 97.7367 92.5614V72.6141C97.7367 71.962 97.9957 71.3366 98.4568 70.8755C98.9179 70.4144 99.5433 70.1554 100.195 70.1554C100.847 70.1554 101.473 70.4144 101.934 70.8755C102.395 71.3366 102.654 71.962 102.654 72.6141V92.5614C103.822 93.1192 104.766 94.0575 105.33 95.2223C105.895 96.3871 106.046 97.7092 105.761 98.9716C105.475 100.234 104.768 101.362 103.757 102.17C102.746 102.978 101.49 103.418 100.195 103.418ZM100.195 70.4337C99.6173 70.4344 99.0631 70.6643 98.6543 71.0731C98.2456 71.4818 98.0156 72.0361 98.015 72.6141V92.6499C98.015 92.6766 98.0074 92.7026 97.993 92.725C97.9786 92.7475 97.9581 92.7653 97.9339 92.7764C96.8081 93.2924 95.8925 94.178 95.3393 95.286C94.7861 96.3941 94.6285 97.658 94.8925 98.868C95.1566 100.078 95.8266 101.161 96.7912 101.938C97.7558 102.715 98.957 103.138 100.195 103.138C101.434 103.138 102.635 102.715 103.6 101.938C104.564 101.161 105.234 100.078 105.498 98.868C105.763 97.658 105.605 96.3941 105.052 95.286C104.498 94.178 103.583 93.2924 102.457 92.7764C102.433 92.7653 102.412 92.7475 102.398 92.7251C102.383 92.7027 102.376 92.6766 102.376 92.6499V72.6141C102.375 72.0361 102.145 71.4818 101.736 71.0731C101.328 70.6643 100.773 70.4344 100.195 70.4337Z" fill="#171819"/>
<path d="M100.196 102.351C99.1371 102.351 98.1104 101.989 97.2859 101.325C96.4615 100.66 95.8889 99.7344 95.6633 98.7001C95.4376 97.6658 95.5724 96.5855 96.0454 95.6384C96.5183 94.6912 97.3008 93.9343 98.2632 93.4932L98.804 93.245V79.8434C98.804 79.4743 98.9506 79.1203 99.2116 78.8593C99.4726 78.5983 99.8266 78.4517 100.196 78.4517C100.565 78.4517 100.919 78.5983 101.18 78.8593C101.441 79.1203 101.587 79.4743 101.587 79.8434V93.245L102.128 93.4932C103.091 93.9343 103.873 94.6912 104.346 95.6384C104.819 96.5855 104.954 97.6658 104.728 98.7001C104.502 99.7344 103.93 100.66 103.105 101.325C102.281 101.989 101.254 102.351 100.196 102.351Z" fill="#FF4F7C"/>
<path d="M105.345 76.8329H104.087C104.013 76.8329 103.942 76.8036 103.89 76.7514C103.838 76.6992 103.809 76.6284 103.809 76.5545C103.809 76.4807 103.838 76.4099 103.89 76.3577C103.942 76.3055 104.013 76.2762 104.087 76.2762H105.345C105.419 76.2762 105.49 76.3055 105.542 76.3577C105.594 76.4099 105.623 76.4807 105.623 76.5545C105.623 76.6284 105.594 76.6992 105.542 76.7514C105.49 76.8036 105.419 76.8329 105.345 76.8329Z" fill="white"/>
<path d="M105.345 79.7529H104.087C104.013 79.7529 103.942 79.7235 103.89 79.6713C103.838 79.6191 103.809 79.5483 103.809 79.4745C103.809 79.4007 103.838 79.3299 103.89 79.2777C103.942 79.2255 104.013 79.1962 104.087 79.1962H105.345C105.419 79.1962 105.49 79.2255 105.542 79.2777C105.594 79.3299 105.623 79.4007 105.623 79.4745C105.623 79.5483 105.594 79.6191 105.542 79.6713C105.49 79.7235 105.419 79.7529 105.345 79.7529Z" fill="white"/>
<path d="M106.598 82.6726H104.087C104.013 82.6726 103.942 82.6433 103.89 82.5911C103.838 82.5389 103.809 82.4681 103.809 82.3943C103.809 82.3204 103.838 82.2496 103.89 82.1974C103.942 82.1452 104.013 82.1159 104.087 82.1159H106.598C106.671 82.1159 106.742 82.1452 106.794 82.1974C106.847 82.2496 106.876 82.3204 106.876 82.3943C106.876 82.4681 106.847 82.5389 106.794 82.5911C106.742 82.6433 106.671 82.6726 106.598 82.6726Z" fill="white"/>
<path d="M105.345 85.5923H104.087C104.013 85.5923 103.942 85.563 103.89 85.5108C103.838 85.4586 103.809 85.3878 103.809 85.314C103.809 85.2402 103.838 85.1694 103.89 85.1172C103.942 85.065 104.013 85.0356 104.087 85.0356H105.345C105.419 85.0356 105.49 85.065 105.542 85.1172C105.594 85.1694 105.623 85.2402 105.623 85.314C105.623 85.3878 105.594 85.4586 105.542 85.5108C105.49 85.563 105.419 85.5923 105.345 85.5923Z" fill="white"/>
<path d="M105.345 88.5123H104.087C104.013 88.5123 103.942 88.483 103.89 88.4308C103.838 88.3786 103.809 88.3078 103.809 88.234C103.809 88.1602 103.838 88.0894 103.89 88.0372C103.942 87.985 104.013 87.9556 104.087 87.9556H105.345C105.419 87.9556 105.49 87.985 105.542 88.0372C105.594 88.0894 105.623 88.1602 105.623 88.234C105.623 88.3078 105.594 88.3786 105.542 88.4308C105.49 88.483 105.419 88.5123 105.345 88.5123Z" fill="white"/>
<path d="M106.598 91.4321H104.087C104.013 91.4321 103.942 91.4027 103.89 91.3505C103.838 91.2983 103.809 91.2275 103.809 91.1537C103.809 91.0799 103.838 91.0091 103.89 90.9569C103.942 90.9047 104.013 90.8754 104.087 90.8754H106.598C106.671 90.8754 106.742 90.9047 106.794 90.9569C106.847 91.0091 106.876 91.0799 106.876 91.1537C106.876 91.2275 106.847 91.2983 106.794 91.3505C106.742 91.4027 106.671 91.4321 106.598 91.4321Z" fill="white"/>
<path d="M106.598 73.9129H104.087C104.013 73.9129 103.942 73.8836 103.89 73.8314C103.838 73.7792 103.809 73.7084 103.809 73.6345C103.809 73.5607 103.838 73.4899 103.89 73.4377C103.942 73.3855 104.013 73.3562 104.087 73.3562H106.598C106.671 73.3562 106.742 73.3855 106.794 73.4377C106.847 73.4899 106.876 73.5607 106.876 73.6345C106.876 73.7084 106.847 73.7792 106.794 73.8314C106.742 73.8836 106.671 73.9129 106.598 73.9129Z" fill="white"/>
<circle cx="97.3506" cy="82.632" r="2.84474" fill="white"/>
<circle cx="97.3501" cy="82.632" r="1.53178" fill="#EA6371"/>
<line x1="83" y1="82.5" x2="80" y2="82.5" stroke="#EA6371"/>
<line x1="95" y1="82.5" x2="83" y2="82.5" stroke="white"/>
<path d="M15.88 29.3H20.17V30.026H16.65V37H15.88V29.3ZM24.6759 36.307C24.1112 36.857 23.4292 37.132 22.6299 37.132C21.8159 37.132 21.1302 36.857 20.5729 36.307C20.0155 35.7497 19.7369 35.064 19.7369 34.25C19.7369 33.436 20.0155 32.754 20.5729 32.204C21.1302 31.6467 21.8159 31.368 22.6299 31.368C23.4365 31.368 24.1185 31.6467 24.6759 32.204C25.2405 32.754 25.5229 33.436 25.5229 34.25C25.5229 35.0567 25.2405 35.7423 24.6759 36.307ZM21.0899 35.801C21.5079 36.219 22.0212 36.428 22.6299 36.428C23.2385 36.428 23.7519 36.219 24.1699 35.801C24.5879 35.3683 24.7969 34.8513 24.7969 34.25C24.7969 33.6413 24.5879 33.128 24.1699 32.71C23.7519 32.2847 23.2385 32.072 22.6299 32.072C22.0212 32.072 21.5079 32.2847 21.0899 32.71C20.6719 33.128 20.4629 33.6413 20.4629 34.25C20.4629 34.8513 20.6719 35.3683 21.0899 35.801ZM27.0949 31.5H31.0329V37H30.3069V32.204H27.8209V34.657C27.8209 35.5737 27.6449 36.2043 27.2929 36.549C26.9483 36.8937 26.4716 37.044 25.8629 37V36.318C26.2883 36.362 26.5999 36.2593 26.7979 36.01C26.9959 35.7607 27.0949 35.3097 27.0949 34.657V31.5ZM37.1798 36.307C36.6151 36.857 35.9331 37.132 35.1338 37.132C34.3198 37.132 33.6341 36.857 33.0768 36.307C32.5194 35.7497 32.2408 35.064 32.2408 34.25C32.2408 33.436 32.5194 32.754 33.0768 32.204C33.6341 31.6467 34.3198 31.368 35.1338 31.368C35.9404 31.368 36.6224 31.6467 37.1798 32.204C37.7444 32.754 38.0268 33.436 38.0268 34.25C38.0268 35.0567 37.7444 35.7423 37.1798 36.307ZM33.5938 35.801C34.0118 36.219 34.5251 36.428 35.1338 36.428C35.7424 36.428 36.2558 36.219 36.6738 35.801C37.0918 35.3683 37.3008 34.8513 37.3008 34.25C37.3008 33.6413 37.0918 33.128 36.6738 32.71C36.2558 32.2847 35.7424 32.072 35.1338 32.072C34.5251 32.072 34.0118 32.2847 33.5938 32.71C33.1758 33.128 32.9668 33.6413 32.9668 34.25C32.9668 34.8513 33.1758 35.3683 33.5938 35.801ZM42.7397 34.173C43.341 34.393 43.6417 34.822 43.6417 35.46C43.6417 35.9147 43.4877 36.285 43.1797 36.571C42.879 36.857 42.4573 37 41.9147 37H39.2417V31.5H41.6947C42.2227 31.5 42.6333 31.6357 42.9267 31.907C43.2273 32.1783 43.3777 32.534 43.3777 32.974C43.3777 33.524 43.165 33.9237 42.7397 34.173ZM41.6947 32.204H39.9677V33.876H41.6947C42.3327 33.876 42.6517 33.59 42.6517 33.018C42.6517 32.7613 42.5673 32.5633 42.3987 32.424C42.2373 32.2773 42.0027 32.204 41.6947 32.204ZM39.9677 36.296H41.9147C42.2373 36.296 42.483 36.219 42.6517 36.065C42.8277 35.911 42.9157 35.6947 42.9157 35.416C42.9157 35.152 42.8277 34.9467 42.6517 34.8C42.483 34.6533 42.2373 34.58 41.9147 34.58H39.9677V36.296ZM48.6357 33.898V31.5H49.3617V37H48.6357V34.602H45.4677V37H44.7417V31.5H45.4677V33.898H48.6357ZM55.627 32.578V31.5H56.353V37H55.627V35.922C55.121 36.7287 54.3803 37.132 53.405 37.132C52.6203 37.132 51.9493 36.8533 51.392 36.296C50.842 35.7387 50.567 35.0567 50.567 34.25C50.567 33.4433 50.842 32.7613 51.392 32.204C51.9493 31.6467 52.6203 31.368 53.405 31.368C54.3803 31.368 55.121 31.7713 55.627 32.578ZM51.92 35.801C52.338 36.219 52.8513 36.428 53.46 36.428C54.0686 36.428 54.582 36.219 55 35.801C55.418 35.3683 55.627 34.8513 55.627 34.25C55.627 33.6413 55.418 33.128 55 32.71C54.582 32.2847 54.0686 32.072 53.46 32.072C52.8513 32.072 52.338 32.2847 51.92 32.71C51.502 33.128 51.293 33.6413 51.293 34.25C51.293 34.8513 51.502 35.3683 51.92 35.801ZM59.6171 31.5H61.8501V37H61.1241V34.888H60.1781L58.4841 37H57.5601L59.2981 34.866C58.8508 34.8 58.4841 34.6167 58.1981 34.316C57.9195 34.008 57.7801 33.6377 57.7801 33.205C57.7801 32.7137 57.9561 32.3067 58.3081 31.984C58.6748 31.6613 59.1111 31.5 59.6171 31.5ZM59.6171 34.206H61.1241V32.204H59.6171C59.3018 32.204 59.0378 32.2993 58.8251 32.49C58.6125 32.6733 58.5061 32.9117 58.5061 33.205C58.5061 33.4983 58.6125 33.7403 58.8251 33.931C59.0378 34.1143 59.3018 34.206 59.6171 34.206ZM68.5821 37.132C67.7975 37.132 67.1375 36.8717 66.6021 36.351C66.0741 35.823 65.8101 35.141 65.8101 34.305C65.8101 33.3663 65.9495 32.6477 66.2281 32.149C66.5068 31.643 67.0715 31.1847 67.9221 30.774C68.1935 30.6493 68.4061 30.554 68.5601 30.488C68.8168 30.3853 69.0185 30.2973 69.1651 30.224C69.8031 29.9307 70.1258 29.5677 70.1331 29.135L70.7051 29.465C70.6685 29.6483 70.6098 29.8133 70.5291 29.96C70.4338 30.1213 70.3385 30.2497 70.2431 30.345C70.1551 30.4403 70.0158 30.543 69.8251 30.653C69.7005 30.7263 69.5501 30.807 69.3741 30.895L68.8241 31.126L68.3071 31.346C67.8011 31.566 67.4235 31.797 67.1741 32.039C66.9321 32.2737 66.7598 32.5817 66.6571 32.963C66.8918 32.6477 67.1998 32.4093 67.5811 32.248C67.9625 32.0793 68.3475 31.995 68.7361 31.995C69.4695 31.995 70.0745 32.237 70.5511 32.721C71.0351 33.1977 71.2771 33.81 71.2771 34.558C71.2771 35.2987 71.0205 35.9147 70.5071 36.406C70.0011 36.89 69.3595 37.132 68.5821 37.132ZM67.1521 35.867C67.5335 36.2263 68.0101 36.406 68.5821 36.406C69.1541 36.406 69.6235 36.2337 69.9901 35.889C70.3641 35.537 70.5511 35.0933 70.5511 34.558C70.5511 34.0153 70.3751 33.5717 70.0231 33.227C69.6785 32.875 69.2165 32.699 68.6371 32.699C68.1165 32.699 67.6435 32.864 67.2181 33.194C66.7928 33.5093 66.5801 33.942 66.5801 34.492C66.5801 35.0493 66.7708 35.5077 67.1521 35.867ZM76.9903 36.307C76.4257 36.857 75.7437 37.132 74.9443 37.132C74.1303 37.132 73.4447 36.857 72.8873 36.307C72.33 35.7497 72.0513 35.064 72.0513 34.25C72.0513 33.436 72.33 32.754 72.8873 32.204C73.4447 31.6467 74.1303 31.368 74.9443 31.368C75.751 31.368 76.433 31.6467 76.9903 32.204C77.555 32.754 77.8373 33.436 77.8373 34.25C77.8373 35.0567 77.555 35.7423 76.9903 36.307ZM73.4043 35.801C73.8223 36.219 74.3357 36.428 74.9443 36.428C75.553 36.428 76.0663 36.219 76.4843 35.801C76.9023 35.3683 77.1113 34.8513 77.1113 34.25C77.1113 33.6413 76.9023 33.128 76.4843 32.71C76.0663 32.2847 75.553 32.072 74.9443 32.072C74.3357 32.072 73.8223 32.2847 73.4043 32.71C72.9863 33.128 72.7773 33.6413 72.7773 34.25C72.7773 34.8513 72.9863 35.3683 73.4043 35.801ZM79.4094 31.5H83.3474V37H82.6214V32.204H80.1354V34.657C80.1354 35.5737 79.9594 36.2043 79.6074 36.549C79.2627 36.8937 78.786 37.044 78.1774 37V36.318C78.6027 36.362 78.9144 36.2593 79.1124 36.01C79.3104 35.7607 79.4094 35.3097 79.4094 34.657V31.5ZM85.6112 33.59H87.1182C87.6242 33.59 88.0569 33.7513 88.4162 34.074C88.7756 34.3893 88.9552 34.7963 88.9552 35.295C88.9552 35.801 88.7756 36.2117 88.4162 36.527C88.0716 36.8423 87.6389 37 87.1182 37H84.8852V31.5H85.6112V33.59ZM85.6112 36.296H87.1182C87.4336 36.296 87.6976 36.2043 87.9102 36.021C88.1229 35.8303 88.2292 35.5883 88.2292 35.295C88.2292 35.0017 88.1229 34.7633 87.9102 34.58C87.6976 34.3893 87.4336 34.294 87.1182 34.294H85.6112V36.296Z" fill="black"/>
<path d="M221.83 49.677V46.3H222.6V54H221.83V50.403H217.65V54H216.88V46.3H217.65V49.677H221.83ZM228.977 49.578V48.5H229.703V54H228.977V52.922C228.471 53.7287 227.73 54.132 226.755 54.132C225.97 54.132 225.299 53.8533 224.742 53.296C224.192 52.7387 223.917 52.0567 223.917 51.25C223.917 50.4433 224.192 49.7613 224.742 49.204C225.299 48.6467 225.97 48.368 226.755 48.368C227.73 48.368 228.471 48.7713 228.977 49.578ZM225.27 52.801C225.688 53.219 226.201 53.428 226.81 53.428C227.418 53.428 227.932 53.219 228.35 52.801C228.768 52.3683 228.977 51.8513 228.977 51.25C228.977 50.6413 228.768 50.128 228.35 49.71C227.932 49.2847 227.418 49.072 226.81 49.072C226.201 49.072 225.688 49.2847 225.27 49.71C224.852 50.128 224.643 50.6413 224.643 51.25C224.643 51.8513 224.852 52.3683 225.27 52.801ZM233.803 54.132C232.974 54.132 232.285 53.857 231.735 53.307C231.185 52.7423 230.91 52.0567 230.91 51.25C230.91 50.436 231.185 49.754 231.735 49.204C232.285 48.6467 232.974 48.368 233.803 48.368C234.345 48.368 234.833 48.5 235.266 48.764C235.698 49.0207 236.014 49.369 236.212 49.809L235.618 50.15C235.471 49.82 235.233 49.5597 234.903 49.369C234.58 49.171 234.213 49.072 233.803 49.072C233.194 49.072 232.681 49.2847 232.263 49.71C231.845 50.128 231.636 50.6413 231.636 51.25C231.636 51.8513 231.845 52.3683 232.263 52.801C232.681 53.219 233.194 53.428 233.803 53.428C234.206 53.428 234.569 53.3327 234.892 53.142C235.222 52.9513 235.478 52.6873 235.662 52.35L236.267 52.702C236.039 53.142 235.706 53.4903 235.266 53.747C234.826 54.0037 234.338 54.132 233.803 54.132ZM241.863 48.5H242.699V54H241.973V49.611L240.048 52.735H239.96L238.035 49.611V54H237.309V48.5H238.145L240.004 51.514L241.863 48.5ZM248.847 53.307C248.282 53.857 247.6 54.132 246.801 54.132C245.987 54.132 245.301 53.857 244.744 53.307C244.186 52.7497 243.908 52.064 243.908 51.25C243.908 50.436 244.186 49.754 244.744 49.204C245.301 48.6467 245.987 48.368 246.801 48.368C247.607 48.368 248.289 48.6467 248.847 49.204C249.411 49.754 249.694 50.436 249.694 51.25C249.694 52.0567 249.411 52.7423 248.847 53.307ZM245.261 52.801C245.679 53.219 246.192 53.428 246.801 53.428C247.409 53.428 247.923 53.219 248.341 52.801C248.759 52.3683 248.968 51.8513 248.968 51.25C248.968 50.6413 248.759 50.128 248.341 49.71C247.923 49.2847 247.409 49.072 246.801 49.072C246.192 49.072 245.679 49.2847 245.261 49.71C244.843 50.128 244.634 50.6413 244.634 51.25C244.634 51.8513 244.843 52.3683 245.261 52.801ZM253.857 48.368C254.641 48.368 255.309 48.6467 255.859 49.204C256.416 49.7613 256.695 50.4433 256.695 51.25C256.695 52.0567 256.416 52.7387 255.859 53.296C255.309 53.8533 254.641 54.132 253.857 54.132C252.881 54.132 252.141 53.7287 251.635 52.922V56.2H250.909V48.5H251.635V49.578C252.141 48.7713 252.881 48.368 253.857 48.368ZM252.262 52.801C252.68 53.219 253.193 53.428 253.802 53.428C254.41 53.428 254.924 53.219 255.342 52.801C255.76 52.3683 255.969 51.8513 255.969 51.25C255.969 50.6413 255.76 50.128 255.342 49.71C254.924 49.2847 254.41 49.072 253.802 49.072C253.193 49.072 252.68 49.2847 252.262 49.71C251.844 50.128 251.635 50.6413 251.635 51.25C251.635 51.8513 251.844 52.3683 252.262 52.801ZM259.398 51.14L262.346 54H261.378L258.628 51.349V54H257.902V48.5H258.628V50.931L261.246 48.5H262.236L259.398 51.14Z" fill="black"/>
<path d="M232.433 104.018C232.858 104.179 233.188 104.425 233.423 104.755C233.658 105.085 233.775 105.474 233.775 105.921C233.775 106.566 233.533 107.098 233.049 107.516C232.572 107.927 231.927 108.132 231.113 108.132C230.409 108.132 229.833 107.974 229.386 107.659C228.939 107.344 228.623 106.922 228.44 106.394L229.1 106.02C229.203 106.438 229.419 106.775 229.749 107.032C230.079 107.281 230.534 107.406 231.113 107.406C231.7 107.406 232.162 107.27 232.499 106.999C232.836 106.728 233.005 106.368 233.005 105.921C233.005 105.474 232.851 105.114 232.543 104.843C232.235 104.572 231.817 104.436 231.289 104.436H230.409V103.71H231.014C231.535 103.71 231.949 103.582 232.257 103.325C232.565 103.061 232.719 102.716 232.719 102.291C232.719 101.873 232.569 101.536 232.268 101.279C231.967 101.022 231.564 100.894 231.058 100.894C230.112 100.894 229.489 101.297 229.188 102.104L228.55 101.73C228.975 100.689 229.811 100.168 231.058 100.168C231.777 100.168 232.363 100.373 232.818 100.784C233.265 101.187 233.489 101.693 233.489 102.302C233.489 103.072 233.137 103.644 232.433 104.018ZM239.72 103.578V102.5H240.446V108H239.72V106.922C239.214 107.729 238.473 108.132 237.498 108.132C236.713 108.132 236.042 107.853 235.485 107.296C234.935 106.739 234.66 106.057 234.66 105.25C234.66 104.443 234.935 103.761 235.485 103.204C236.042 102.647 236.713 102.368 237.498 102.368C238.473 102.368 239.214 102.771 239.72 103.578ZM236.013 106.801C236.431 107.219 236.944 107.428 237.553 107.428C238.161 107.428 238.675 107.219 239.093 106.801C239.511 106.368 239.72 105.851 239.72 105.25C239.72 104.641 239.511 104.128 239.093 103.71C238.675 103.285 238.161 103.072 237.553 103.072C236.944 103.072 236.431 103.285 236.013 103.71C235.595 104.128 235.386 104.641 235.386 105.25C235.386 105.851 235.595 106.368 236.013 106.801ZM241.323 102.5H245.943V103.204H243.996V108H243.27V103.204H241.323V102.5ZM249.776 102.368C250.56 102.368 251.228 102.647 251.778 103.204C252.335 103.761 252.614 104.443 252.614 105.25C252.614 106.057 252.335 106.739 251.778 107.296C251.228 107.853 250.56 108.132 249.776 108.132C248.8 108.132 248.06 107.729 247.554 106.922V110.2H246.828V102.5H247.554V103.578C248.06 102.771 248.8 102.368 249.776 102.368ZM248.181 106.801C248.599 107.219 249.112 107.428 249.721 107.428C250.329 107.428 250.843 107.219 251.261 106.801C251.679 106.368 251.888 105.851 251.888 105.25C251.888 104.641 251.679 104.128 251.261 103.71C250.843 103.285 250.329 103.072 249.721 103.072C249.112 103.072 248.599 103.285 248.181 103.71C247.763 104.128 247.554 104.641 247.554 105.25C247.554 105.851 247.763 106.368 248.181 106.801ZM255.784 107.109L257.566 102.5H258.336L255.982 108.506C255.762 109.063 255.454 109.492 255.058 109.793C254.669 110.101 254.237 110.237 253.76 110.2V109.518C254.42 109.599 254.922 109.217 255.267 108.374L255.41 108.033L252.946 102.5H253.716L255.784 107.109ZM263.5 102.5V107.296H264.27V109.474H263.544V108H259.056V109.474H258.33V107.296H259.001C259.375 106.797 259.562 106.104 259.562 105.217V102.5H263.5ZM259.881 107.296H262.774V103.204H260.288V105.217C260.288 106.068 260.153 106.761 259.881 107.296ZM269.263 104.898V102.5H269.989V108H269.263V105.602H266.095V108H265.369V102.5H266.095V104.898H269.263ZM274.065 102.368C274.886 102.368 275.543 102.658 276.034 103.237C276.54 103.809 276.793 104.487 276.793 105.272C276.793 105.309 276.786 105.422 276.771 105.613H271.942C272.015 106.163 272.25 106.603 272.646 106.933C273.042 107.263 273.537 107.428 274.131 107.428C274.967 107.428 275.557 107.116 275.902 106.493L276.54 106.867C276.298 107.263 275.964 107.575 275.539 107.802C275.121 108.022 274.648 108.132 274.12 108.132C273.255 108.132 272.551 107.861 272.008 107.318C271.465 106.775 271.194 106.086 271.194 105.25C271.194 104.421 271.462 103.736 271.997 103.193C272.532 102.643 273.222 102.368 274.065 102.368ZM274.065 103.072C273.493 103.072 273.013 103.241 272.624 103.578C272.243 103.915 272.015 104.359 271.942 104.909H276.045C275.964 104.322 275.741 103.871 275.374 103.556C274.993 103.233 274.556 103.072 274.065 103.072ZM281.842 104.898V102.5H282.568V108H281.842V105.602H278.674V108H277.948V102.5H278.674V104.898H281.842ZM287.997 104.898V102.5H288.723V108H287.997V105.602H284.829V108H284.103V102.5H284.829V104.898H287.997ZM294.867 107.307C294.303 107.857 293.621 108.132 292.821 108.132C292.007 108.132 291.322 107.857 290.764 107.307C290.207 106.75 289.928 106.064 289.928 105.25C289.928 104.436 290.207 103.754 290.764 103.204C291.322 102.647 292.007 102.368 292.821 102.368C293.628 102.368 294.31 102.647 294.867 103.204C295.432 103.754 295.714 104.436 295.714 105.25C295.714 106.057 295.432 106.742 294.867 107.307ZM291.281 106.801C291.699 107.219 292.213 107.428 292.821 107.428C293.43 107.428 293.943 107.219 294.361 106.801C294.779 106.368 294.988 105.851 294.988 105.25C294.988 104.641 294.779 104.128 294.361 103.71C293.943 103.285 293.43 103.072 292.821 103.072C292.213 103.072 291.699 103.285 291.281 103.71C290.863 104.128 290.654 104.641 290.654 105.25C290.654 105.851 290.863 106.368 291.281 106.801ZM299.47 102.368C300.292 102.368 300.948 102.658 301.439 103.237C301.945 103.809 302.198 104.487 302.198 105.272C302.198 105.309 302.191 105.422 302.176 105.613H297.347C297.421 106.163 297.655 106.603 298.051 106.933C298.447 107.263 298.942 107.428 299.536 107.428C300.372 107.428 300.963 107.116 301.307 106.493L301.945 106.867C301.703 107.263 301.37 107.575 300.944 107.802C300.526 108.022 300.053 108.132 299.525 108.132C298.66 108.132 297.956 107.861 297.413 107.318C296.871 106.775 296.599 106.086 296.599 105.25C296.599 104.421 296.867 103.736 297.402 103.193C297.938 102.643 298.627 102.368 299.47 102.368ZM299.47 103.072C298.898 103.072 298.418 103.241 298.029 103.578C297.648 103.915 297.421 104.359 297.347 104.909H301.45C301.37 104.322 301.146 103.871 300.779 103.556C300.398 103.233 299.962 103.072 299.47 103.072ZM233.39 115.5V120.296H234.16V122.474H233.434V121H228.946V122.474H228.22V120.296H228.891C229.265 119.797 229.452 119.104 229.452 118.217V115.5H233.39ZM229.771 120.296H232.664V116.204H230.178V118.217C230.178 119.068 230.042 119.761 229.771 120.296ZM235.984 117.59H237.491C237.997 117.59 238.43 117.751 238.789 118.074C239.149 118.389 239.328 118.796 239.328 119.295C239.328 119.801 239.149 120.212 238.789 120.527C238.445 120.842 238.012 121 237.491 121H235.258V115.5H235.984V117.59ZM240.098 121V115.5H240.824V121H240.098ZM235.984 120.296H237.491C237.807 120.296 238.071 120.204 238.283 120.021C238.496 119.83 238.602 119.588 238.602 119.295C238.602 119.002 238.496 118.763 238.283 118.58C238.071 118.389 237.807 118.294 237.491 118.294H235.984V120.296ZM244.845 118.151L246.99 121H246.121L244.405 118.734L242.689 121H241.82L243.976 118.151L241.963 115.5H242.832L244.405 117.579L245.978 115.5H246.847L244.845 118.151ZM252.32 116.578V115.5H253.046V121H252.32V119.922C251.814 120.729 251.074 121.132 250.098 121.132C249.314 121.132 248.643 120.853 248.085 120.296C247.535 119.739 247.26 119.057 247.26 118.25C247.26 117.443 247.535 116.761 248.085 116.204C248.643 115.647 249.314 115.368 250.098 115.368C251.074 115.368 251.814 115.771 252.32 116.578ZM248.613 119.801C249.031 120.219 249.545 120.428 250.153 120.428C250.762 120.428 251.275 120.219 251.693 119.801C252.111 119.368 252.32 118.851 252.32 118.25C252.32 117.641 252.111 117.128 251.693 116.71C251.275 116.285 250.762 116.072 250.153 116.072C249.545 116.072 249.031 116.285 248.613 116.71C248.195 117.128 247.986 117.641 247.986 118.25C247.986 118.851 248.195 119.368 248.613 119.801ZM258.477 117.898V115.5H259.203V121H258.477V118.602H255.309V121H254.583V115.5H255.309V117.898H258.477ZM261.465 119.735L264.743 115.5H265.359V121H264.633V116.765L261.355 121H260.739V115.5H261.465V119.735ZM269.435 115.368C270.256 115.368 270.913 115.658 271.404 116.237C271.91 116.809 272.163 117.487 272.163 118.272C272.163 118.309 272.156 118.422 272.141 118.613H267.312C267.385 119.163 267.62 119.603 268.016 119.933C268.412 120.263 268.907 120.428 269.501 120.428C270.337 120.428 270.927 120.116 271.272 119.493L271.91 119.867C271.668 120.263 271.334 120.575 270.909 120.802C270.491 121.022 270.018 121.132 269.49 121.132C268.625 121.132 267.921 120.861 267.378 120.318C266.835 119.775 266.564 119.086 266.564 118.25C266.564 117.421 266.832 116.736 267.367 116.193C267.902 115.643 268.592 115.368 269.435 115.368ZM269.435 116.072C268.863 116.072 268.383 116.241 267.994 116.578C267.613 116.915 267.385 117.359 267.312 117.909H271.415C271.334 117.322 271.111 116.871 270.744 116.556C270.363 116.233 269.926 116.072 269.435 116.072Z" fill="black"/>
<path d="M36.148 74.007C36.5293 74.1683 36.83 74.414 37.05 74.744C37.27 75.074 37.38 75.4443 37.38 75.855C37.38 76.449 37.171 76.955 36.753 77.373C36.335 77.791 35.829 78 35.235 78H31.88V70.3H34.982C35.5467 70.3 36.0343 70.5053 36.445 70.916C36.8483 71.3193 37.05 71.8033 37.05 72.368C37.05 73.0867 36.7493 73.633 36.148 74.007ZM34.982 71.026H32.65V73.71H34.982C35.334 73.71 35.6383 73.5817 35.895 73.325C36.1517 73.0537 36.28 72.7347 36.28 72.368C36.28 72.0087 36.1517 71.6933 35.895 71.422C35.6383 71.158 35.334 71.026 34.982 71.026ZM32.65 77.274H35.235C35.6163 77.274 35.939 77.1383 36.203 76.867C36.4743 76.5957 36.61 76.2583 36.61 75.855C36.61 75.459 36.4743 75.1253 36.203 74.854C35.939 74.5753 35.6163 74.436 35.235 74.436H32.65V77.274ZM39.3173 74.59H40.8243C41.3303 74.59 41.763 74.7513 42.1223 75.074C42.4816 75.3893 42.6613 75.7963 42.6613 76.295C42.6613 76.801 42.4816 77.2117 42.1223 77.527C41.7776 77.8423 41.345 78 40.8243 78H38.5913V72.5H39.3173V74.59ZM43.4313 78V72.5H44.1573V78H43.4313ZM39.3173 77.296H40.8243C41.1396 77.296 41.4036 77.2043 41.6163 77.021C41.829 76.8303 41.9353 76.5883 41.9353 76.295C41.9353 76.0017 41.829 75.7633 41.6163 75.58C41.4036 75.3893 41.1396 75.294 40.8243 75.294H39.3173V77.296ZM48.2656 78.132C47.437 78.132 46.7476 77.857 46.1976 77.307C45.6476 76.7423 45.3726 76.0567 45.3726 75.25C45.3726 74.436 45.6476 73.754 46.1976 73.204C46.7476 72.6467 47.437 72.368 48.2656 72.368C48.8083 72.368 49.296 72.5 49.7286 72.764C50.1613 73.0207 50.4766 73.369 50.6746 73.809L50.0806 74.15C49.934 73.82 49.6956 73.5597 49.3656 73.369C49.043 73.171 48.6763 73.072 48.2656 73.072C47.657 73.072 47.1436 73.2847 46.7256 73.71C46.3076 74.128 46.0986 74.6413 46.0986 75.25C46.0986 75.8513 46.3076 76.3683 46.7256 76.801C47.1436 77.219 47.657 77.428 48.2656 77.428C48.669 77.428 49.032 77.3327 49.3546 77.142C49.6846 76.9513 49.9413 76.6873 50.1246 76.35L50.7296 76.702C50.5023 77.142 50.1686 77.4903 49.7286 77.747C49.2886 78.0037 48.801 78.132 48.2656 78.132ZM56.3272 77.307C55.7626 77.857 55.0806 78.132 54.2812 78.132C53.4672 78.132 52.7816 77.857 52.2242 77.307C51.6669 76.7497 51.3882 76.064 51.3882 75.25C51.3882 74.436 51.6669 73.754 52.2242 73.204C52.7816 72.6467 53.4672 72.368 54.2812 72.368C55.0879 72.368 55.7699 72.6467 56.3272 73.204C56.8919 73.754 57.1742 74.436 57.1742 75.25C57.1742 76.0567 56.8919 76.7423 56.3272 77.307ZM52.7412 76.801C53.1592 77.219 53.6726 77.428 54.2812 77.428C54.8899 77.428 55.4032 77.219 55.8212 76.801C56.2392 76.3683 56.4482 75.8513 56.4482 75.25C56.4482 74.6413 56.2392 74.128 55.8212 73.71C55.4032 73.2847 54.8899 73.072 54.2812 73.072C53.6726 73.072 53.1592 73.2847 52.7412 73.71C52.3232 74.128 52.1142 74.6413 52.1142 75.25C52.1142 75.8513 52.3232 76.3683 52.7412 76.801ZM59.8851 75.14L62.8331 78H61.8651L59.1151 75.349V78H58.3891V72.5H59.1151V74.931L61.7331 72.5H62.7231L59.8851 75.14ZM68.0068 73.578V72.5H68.7328V78H68.0068V76.922C67.5008 77.7287 66.7602 78.132 65.7848 78.132C65.0002 78.132 64.3292 77.8533 63.7718 77.296C63.2218 76.7387 62.9468 76.0567 62.9468 75.25C62.9468 74.4433 63.2218 73.7613 63.7718 73.204C64.3292 72.6467 65.0002 72.368 65.7848 72.368C66.7602 72.368 67.5008 72.7713 68.0068 73.578ZM64.2998 76.801C64.7178 77.219 65.2312 77.428 65.8398 77.428C66.4485 77.428 66.9618 77.219 67.3798 76.801C67.7978 76.3683 68.0068 75.8513 68.0068 75.25C68.0068 74.6413 67.7978 74.128 67.3798 73.71C66.9618 73.2847 66.4485 73.072 65.8398 73.072C65.2312 73.072 64.7178 73.2847 64.2998 73.71C63.8818 74.128 63.6728 74.6413 63.6728 75.25C63.6728 75.8513 63.8818 76.3683 64.2998 76.801ZM71.997 72.5H74.23V78H73.504V75.888H72.558L70.864 78H69.94L71.678 75.866C71.2307 75.8 70.864 75.6167 70.578 75.316C70.2993 75.008 70.16 74.6377 70.16 74.205C70.16 73.7137 70.336 73.3067 70.688 72.984C71.0547 72.6613 71.491 72.5 71.997 72.5ZM71.997 75.206H73.504V73.204H71.997C71.6817 73.204 71.4177 73.2993 71.205 73.49C70.9923 73.6733 70.886 73.9117 70.886 74.205C70.886 74.4983 70.9923 74.7403 71.205 74.931C71.4177 75.1143 71.6817 75.206 71.997 75.206ZM6.12367 85.5H10.7437V86.204H8.79667V91H8.07067V86.204H6.12367V85.5ZM13.9546 85.368C14.7759 85.368 15.4322 85.6577 15.9236 86.237C16.4296 86.809 16.6826 87.4873 16.6826 88.272C16.6826 88.3087 16.6752 88.4223 16.6606 88.613H11.8316C11.9049 89.163 12.1396 89.603 12.5356 89.933C12.9316 90.263 13.4266 90.428 14.0206 90.428C14.8566 90.428 15.4469 90.1163 15.7916 89.493L16.4296 89.867C16.1876 90.263 15.8539 90.5747 15.4286 90.802C15.0106 91.022 14.5376 91.132 14.0096 91.132C13.1442 91.132 12.4402 90.8607 11.8976 90.318C11.3549 89.7753 11.0836 89.086 11.0836 88.25C11.0836 87.4213 11.3512 86.7357 11.8866 86.193C12.4219 85.643 13.1112 85.368 13.9546 85.368ZM13.9546 86.072C13.3826 86.072 12.9022 86.2407 12.5136 86.578C12.1322 86.9153 11.9049 87.359 11.8316 87.909H15.9346C15.8539 87.3223 15.6302 86.8713 15.2636 86.556C14.8822 86.2333 14.4459 86.072 13.9546 86.072ZM22.3914 85.5H23.2274V91H22.5014V86.611L20.5764 89.735H20.4884L18.5634 86.611V91H17.8374V85.5H18.6734L20.5324 88.514L22.3914 85.5ZM24.7661 85.5H29.3861V91H28.6601V86.204H25.4921V91H24.7661V85.5ZM33.4624 85.368C34.2837 85.368 34.94 85.6577 35.4314 86.237C35.9374 86.809 36.1904 87.4873 36.1904 88.272C36.1904 88.3087 36.183 88.4223 36.1684 88.613H31.3394C31.4127 89.163 31.6474 89.603 32.0434 89.933C32.4394 90.263 32.9344 90.428 33.5284 90.428C34.3644 90.428 34.9547 90.1163 35.2994 89.493L35.9374 89.867C35.6954 90.263 35.3617 90.5747 34.9364 90.802C34.5184 91.022 34.0454 91.132 33.5174 91.132C32.652 91.132 31.948 90.8607 31.4054 90.318C30.8627 89.7753 30.5914 89.086 30.5914 88.25C30.5914 87.4213 30.859 86.7357 31.3944 86.193C31.9297 85.643 32.619 85.368 33.4624 85.368ZM33.4624 86.072C32.8904 86.072 32.41 86.2407 32.0214 86.578C31.64 86.9153 31.4127 87.359 31.3394 87.909H35.4424C35.3617 87.3223 35.138 86.8713 34.7714 86.556C34.39 86.2333 33.9537 86.072 33.4624 86.072ZM40.2932 85.368C41.0779 85.368 41.7452 85.6467 42.2952 86.204C42.8525 86.7613 43.1312 87.4433 43.1312 88.25C43.1312 89.0567 42.8525 89.7387 42.2952 90.296C41.7452 90.8533 41.0779 91.132 40.2932 91.132C39.3179 91.132 38.5772 90.7287 38.0712 89.922V93.2H37.3452V85.5H38.0712V86.578C38.5772 85.7713 39.3179 85.368 40.2932 85.368ZM38.6982 89.801C39.1162 90.219 39.6295 90.428 40.2382 90.428C40.8469 90.428 41.3602 90.219 41.7782 89.801C42.1962 89.3683 42.4052 88.8513 42.4052 88.25C42.4052 87.6413 42.1962 87.128 41.7782 86.71C41.3602 86.2847 40.8469 86.072 40.2382 86.072C39.6295 86.072 39.1162 86.2847 38.6982 86.71C38.2802 87.128 38.0712 87.6413 38.0712 88.25C38.0712 88.8513 38.2802 89.3683 38.6982 89.801ZM49.0684 86.578V85.5H49.7944V91H49.0684V89.922C48.5624 90.7287 47.8217 91.132 46.8464 91.132C46.0617 91.132 45.3907 90.8533 44.8334 90.296C44.2834 89.7387 44.0084 89.0567 44.0084 88.25C44.0084 87.4433 44.2834 86.7613 44.8334 86.204C45.3907 85.6467 46.0617 85.368 46.8464 85.368C47.8217 85.368 48.5624 85.7713 49.0684 86.578ZM45.3614 89.801C45.7794 90.219 46.2927 90.428 46.9014 90.428C47.51 90.428 48.0234 90.219 48.4414 89.801C48.8594 89.3683 49.0684 88.8513 49.0684 88.25C49.0684 87.6413 48.8594 87.128 48.4414 86.71C48.0234 86.2847 47.51 86.072 46.9014 86.072C46.2927 86.072 45.7794 86.2847 45.3614 86.71C44.9434 87.128 44.7344 87.6413 44.7344 88.25C44.7344 88.8513 44.9434 89.3683 45.3614 89.801ZM50.6715 85.5H55.2915V86.204H53.3445V91H52.6185V86.204H50.6715V85.5ZM58.3543 90.109L60.1363 85.5H60.9062L58.5523 91.506C58.3323 92.0633 58.0243 92.4923 57.6283 92.793C57.2396 93.101 56.8069 93.2367 56.3303 93.2V92.518C56.9903 92.5987 57.4926 92.2173 57.8373 91.374L57.9803 91.033L55.5163 85.5H56.2863L58.3543 90.109ZM64.7317 85.368C65.5163 85.368 66.1837 85.6467 66.7337 86.204C67.291 86.7613 67.5697 87.4433 67.5697 88.25C67.5697 89.0567 67.291 89.7387 66.7337 90.296C66.1837 90.8533 65.5163 91.132 64.7317 91.132C63.7563 91.132 63.0157 90.7287 62.5097 89.922V93.2H61.7837V85.5H62.5097V86.578C63.0157 85.7713 63.7563 85.368 64.7317 85.368ZM63.1367 89.801C63.5547 90.219 64.068 90.428 64.6767 90.428C65.2853 90.428 65.7987 90.219 66.2167 89.801C66.6347 89.3683 66.8437 88.8513 66.8437 88.25C66.8437 87.6413 66.6347 87.128 66.2167 86.71C65.7987 86.2847 65.2853 86.072 64.6767 86.072C64.068 86.072 63.5547 86.2847 63.1367 86.71C62.7187 87.128 62.5097 87.6413 62.5097 88.25C62.5097 88.8513 62.7187 89.3683 63.1367 89.801ZM73.5068 86.578V85.5H74.2328V91H73.5068V89.922C73.0008 90.7287 72.2602 91.132 71.2848 91.132C70.5002 91.132 69.8292 90.8533 69.2718 90.296C68.7218 89.7387 68.4468 89.0567 68.4468 88.25C68.4468 87.4433 68.7218 86.7613 69.2718 86.204C69.8292 85.6467 70.5002 85.368 71.2848 85.368C72.2602 85.368 73.0008 85.7713 73.5068 86.578ZM69.7998 89.801C70.2178 90.219 70.7312 90.428 71.3398 90.428C71.9485 90.428 72.4618 90.219 72.8798 89.801C73.2978 89.3683 73.5068 88.8513 73.5068 88.25C73.5068 87.6413 73.2978 87.128 72.8798 86.71C72.4618 86.2847 71.9485 86.072 71.3398 86.072C70.7312 86.072 70.2178 86.2847 69.7998 86.71C69.3818 87.128 69.1728 87.6413 69.1728 88.25C69.1728 88.8513 69.3818 89.3683 69.7998 89.801Z" fill="black"/>
<path d="M218.65 77.38H220.74C221.371 77.38 221.913 77.6073 222.368 78.062C222.823 78.5167 223.05 79.0593 223.05 79.69C223.05 80.328 222.823 80.8743 222.368 81.329C221.921 81.7763 221.378 82 220.74 82H217.88V74.3H222.39V75.026H218.65V77.38ZM218.65 81.274H220.74C221.165 81.274 221.528 81.12 221.829 80.812C222.13 80.4967 222.28 80.1227 222.28 79.69C222.28 79.2647 222.13 78.8943 221.829 78.579C221.536 78.2637 221.173 78.106 220.74 78.106H218.65V81.274ZM228.814 81.307C228.249 81.857 227.567 82.132 226.768 82.132C225.954 82.132 225.268 81.857 224.711 81.307C224.153 80.7497 223.875 80.064 223.875 79.25C223.875 78.436 224.153 77.754 224.711 77.204C225.268 76.6467 225.954 76.368 226.768 76.368C227.574 76.368 228.256 76.6467 228.814 77.204C229.378 77.754 229.661 78.436 229.661 79.25C229.661 80.0567 229.378 80.7423 228.814 81.307ZM225.228 80.801C225.646 81.219 226.159 81.428 226.768 81.428C227.376 81.428 227.89 81.219 228.308 80.801C228.726 80.3683 228.935 79.8513 228.935 79.25C228.935 78.6413 228.726 78.128 228.308 77.71C227.89 77.2847 227.376 77.072 226.768 77.072C226.159 77.072 225.646 77.2847 225.228 77.71C224.81 78.128 224.601 78.6413 224.601 79.25C224.601 79.8513 224.81 80.3683 225.228 80.801ZM231.233 76.5H235.171V82H234.445V77.204H231.959V79.657C231.959 80.5737 231.783 81.2043 231.431 81.549C231.086 81.8937 230.609 82.044 230.001 82V81.318C230.426 81.362 230.738 81.2593 230.936 81.01C231.134 80.7607 231.233 80.3097 231.233 79.657V76.5ZM237.434 78.59H238.941C239.447 78.59 239.88 78.7513 240.239 79.074C240.599 79.3893 240.778 79.7963 240.778 80.295C240.778 80.801 240.599 81.2117 240.239 81.527C239.895 81.8423 239.462 82 238.941 82H236.708V76.5H237.434V78.59ZM237.434 81.296H238.941C239.257 81.296 239.521 81.2043 239.733 81.021C239.946 80.8303 240.052 80.5883 240.052 80.295C240.052 80.0017 239.946 79.7633 239.733 79.58C239.521 79.3893 239.257 79.294 238.941 79.294H237.434V81.296ZM248.123 79.173C248.725 79.393 249.025 79.822 249.025 80.46C249.025 80.9147 248.871 81.285 248.563 81.571C248.263 81.857 247.841 82 247.298 82H244.625V76.5H247.078C247.606 76.5 248.017 76.6357 248.31 76.907C248.611 77.1783 248.761 77.534 248.761 77.974C248.761 78.524 248.549 78.9237 248.123 79.173ZM247.078 77.204H245.351V78.876H247.078C247.716 78.876 248.035 78.59 248.035 78.018C248.035 77.7613 247.951 77.5633 247.782 77.424C247.621 77.2773 247.386 77.204 247.078 77.204ZM245.351 81.296H247.298C247.621 81.296 247.867 81.219 248.035 81.065C248.211 80.911 248.299 80.6947 248.299 80.416C248.299 80.152 248.211 79.9467 248.035 79.8C247.867 79.6533 247.621 79.58 247.298 79.58H245.351V81.296ZM252.875 76.5H256.395V77.204H253.601V82H252.875V76.5ZM261.674 81.307C261.109 81.857 260.427 82.132 259.628 82.132C258.814 82.132 258.128 81.857 257.571 81.307C257.014 80.7497 256.735 80.064 256.735 79.25C256.735 78.436 257.014 77.754 257.571 77.204C258.128 76.6467 258.814 76.368 259.628 76.368C260.435 76.368 261.117 76.6467 261.674 77.204C262.239 77.754 262.521 78.436 262.521 79.25C262.521 80.0567 262.239 80.7423 261.674 81.307ZM258.088 80.801C258.506 81.219 259.019 81.428 259.628 81.428C260.237 81.428 260.75 81.219 261.168 80.801C261.586 80.3683 261.795 79.8513 261.795 79.25C261.795 78.6413 261.586 78.128 261.168 77.71C260.75 77.2847 260.237 77.072 259.628 77.072C259.019 77.072 258.506 77.2847 258.088 77.71C257.67 78.128 257.461 78.6413 257.461 79.25C257.461 79.8513 257.67 80.3683 258.088 80.801ZM266.684 76.368C267.468 76.368 268.136 76.6467 268.686 77.204C269.243 77.7613 269.522 78.4433 269.522 79.25C269.522 80.0567 269.243 80.7387 268.686 81.296C268.136 81.8533 267.468 82.132 266.684 82.132C265.708 82.132 264.968 81.7287 264.462 80.922V84.2H263.736V76.5H264.462V77.578C264.968 76.7713 265.708 76.368 266.684 76.368ZM265.089 80.801C265.507 81.219 266.02 81.428 266.629 81.428C267.237 81.428 267.751 81.219 268.169 80.801C268.587 80.3683 268.796 79.8513 268.796 79.25C268.796 78.6413 268.587 78.128 268.169 77.71C267.751 77.2847 267.237 77.072 266.629 77.072C266.02 77.072 265.507 77.2847 265.089 77.71C264.671 78.128 264.462 78.6413 264.462 79.25C264.462 79.8513 264.671 80.3683 265.089 80.801ZM271.086 76.5H275.024V82H274.298V77.204H271.812V79.657C271.812 80.5737 271.636 81.2043 271.284 81.549C270.939 81.8937 270.463 82.044 269.854 82V81.318C270.279 81.362 270.591 81.2593 270.789 81.01C270.987 80.7607 271.086 80.3097 271.086 79.657V76.5ZM279.103 76.368C279.924 76.368 280.581 76.6577 281.072 77.237C281.578 77.809 281.831 78.4873 281.831 79.272C281.831 79.3087 281.824 79.4223 281.809 79.613H276.98C277.053 80.163 277.288 80.603 277.684 80.933C278.08 81.263 278.575 81.428 279.169 81.428C280.005 81.428 280.595 81.1163 280.94 80.493L281.578 80.867C281.336 81.263 281.002 81.5747 280.577 81.802C280.159 82.022 279.686 82.132 279.158 82.132C278.293 82.132 277.589 81.8607 277.046 81.318C276.503 80.7753 276.232 80.086 276.232 79.25C276.232 78.4213 276.5 77.7357 277.035 77.193C277.57 76.643 278.26 76.368 279.103 76.368ZM279.103 77.072C278.531 77.072 278.051 77.2407 277.662 77.578C277.281 77.9153 277.053 78.359 276.98 78.909H281.083C281.002 78.3223 280.779 77.8713 280.412 77.556C280.031 77.2333 279.594 77.072 279.103 77.072Z" fill="black"/>
<path d="M48.249 114.977C47.479 115.747 46.5367 116.132 45.422 116.132C44.3073 116.132 43.365 115.747 42.595 114.977C41.825 114.192 41.44 113.25 41.44 112.15C41.44 111.043 41.825 110.104 42.595 109.334C43.365 108.557 44.3073 108.168 45.422 108.168C46.5367 108.168 47.479 108.557 48.249 109.334C49.019 110.104 49.404 111.043 49.404 112.15C49.404 113.25 49.019 114.192 48.249 114.977ZM42.21 112.15C42.21 113.059 42.518 113.826 43.134 114.449C43.75 115.072 44.5127 115.384 45.422 115.384C46.3313 115.384 47.094 115.072 47.71 114.449C48.326 113.826 48.634 113.059 48.634 112.15C48.634 111.248 48.326 110.485 47.71 109.862C47.094 109.231 46.3313 108.916 45.422 108.916C44.5127 108.916 43.75 109.231 43.134 109.862C42.518 110.485 42.21 111.248 42.21 112.15ZM53.4488 113.173C54.0868 113.415 54.4058 113.855 54.4058 114.493C54.4058 114.955 54.2262 115.344 53.8668 115.659C53.5222 115.974 53.0162 116.132 52.3488 116.132C51.2342 116.132 50.5082 115.692 50.1708 114.812L50.7868 114.449C51.0215 115.102 51.5422 115.428 52.3488 115.428C52.7668 115.428 53.0932 115.34 53.3278 115.164C53.5625 114.981 53.6798 114.742 53.6798 114.449C53.6798 114.185 53.5845 113.976 53.3938 113.822C53.2032 113.661 52.9465 113.58 52.6238 113.58H51.8208V112.876H52.4038C52.7192 112.876 52.9648 112.799 53.1408 112.645C53.3242 112.484 53.4158 112.264 53.4158 111.985C53.4158 111.721 53.3058 111.505 53.0858 111.336C52.8732 111.16 52.5908 111.072 52.2388 111.072C51.5568 111.072 51.0985 111.347 50.8638 111.897L50.2588 111.545C50.6255 110.76 51.2855 110.368 52.2388 110.368C52.8255 110.368 53.2875 110.522 53.6248 110.83C53.9695 111.131 54.1418 111.501 54.1418 111.941C54.1418 112.506 53.9108 112.916 53.4488 113.173ZM59.4033 112.898V110.5H60.1293V116H59.4033V113.602H56.2353V116H55.5093V110.5H56.2353V112.898H59.4033ZM66.2735 115.307C65.7089 115.857 65.0269 116.132 64.2275 116.132C63.4135 116.132 62.7279 115.857 62.1705 115.307C61.6132 114.75 61.3345 114.064 61.3345 113.25C61.3345 112.436 61.6132 111.754 62.1705 111.204C62.7279 110.647 63.4135 110.368 64.2275 110.368C65.0342 110.368 65.7162 110.647 66.2735 111.204C66.8382 111.754 67.1205 112.436 67.1205 113.25C67.1205 114.057 66.8382 114.742 66.2735 115.307ZM62.6875 114.801C63.1055 115.219 63.6189 115.428 64.2275 115.428C64.8362 115.428 65.3495 115.219 65.7675 114.801C66.1855 114.368 66.3945 113.851 66.3945 113.25C66.3945 112.641 66.1855 112.128 65.7675 111.71C65.3495 111.285 64.8362 111.072 64.2275 111.072C63.6189 111.072 63.1055 111.285 62.6875 111.71C62.2695 112.128 62.0605 112.641 62.0605 113.25C62.0605 113.851 62.2695 114.368 62.6875 114.801ZM70.7774 116.132C69.9928 116.132 69.3328 115.872 68.7974 115.351C68.2694 114.823 68.0054 114.141 68.0054 113.305C68.0054 112.366 68.1448 111.648 68.4234 111.149C68.7021 110.643 69.2668 110.185 70.1174 109.774C70.3888 109.649 70.6014 109.554 70.7554 109.488C71.0121 109.385 71.2138 109.297 71.3604 109.224C71.9984 108.931 72.3211 108.568 72.3284 108.135L72.9004 108.465C72.8638 108.648 72.8051 108.813 72.7244 108.96C72.6291 109.121 72.5338 109.25 72.4384 109.345C72.3504 109.44 72.2111 109.543 72.0204 109.653C71.8958 109.726 71.7454 109.807 71.5694 109.895L71.0194 110.126L70.5024 110.346C69.9964 110.566 69.6188 110.797 69.3694 111.039C69.1274 111.274 68.9551 111.582 68.8524 111.963C69.0871 111.648 69.3951 111.409 69.7764 111.248C70.1578 111.079 70.5428 110.995 70.9314 110.995C71.6648 110.995 72.2698 111.237 72.7464 111.721C73.2304 112.198 73.4724 112.81 73.4724 113.558C73.4724 114.299 73.2158 114.915 72.7024 115.406C72.1964 115.89 71.5548 116.132 70.7774 116.132ZM69.3474 114.867C69.7288 115.226 70.2054 115.406 70.7774 115.406C71.3494 115.406 71.8188 115.234 72.1854 114.889C72.5594 114.537 72.7464 114.093 72.7464 113.558C72.7464 113.015 72.5704 112.572 72.2184 112.227C71.8738 111.875 71.4118 111.699 70.8324 111.699C70.3118 111.699 69.8388 111.864 69.4134 112.194C68.9881 112.509 68.7754 112.942 68.7754 113.492C68.7754 114.049 68.9661 114.508 69.3474 114.867Z" fill="black"/>
<circle cx="113.261" cy="113.268" r="2.84474" fill="white"/>
<circle cx="113.261" cy="113.268" r="1.53178" fill="#EA6371"/>
<circle cx="164.466" cy="104.515" r="2.84474" fill="white"/>
<circle cx="164.466" cy="104.515" r="1.53178" fill="#EA6371"/>
<circle cx="153.087" cy="79.5685" r="2.84474" fill="white"/>
<circle cx="153.086" cy="79.5684" r="1.53178" fill="#EA6371"/>
<circle cx="155.713" cy="50.2457" r="2.84474" fill="white"/>
<circle cx="155.713" cy="50.2455" r="1.53178" fill="#EA6371"/>
<line x1="128" y1="34.5" x2="121" y2="34.5" stroke="white"/>
<line x1="123" y1="34.5" x2="95" y2="34.5" stroke="#EA6371"/>
<line x1="200" y1="50.5" x2="159" y2="50.5" stroke="white"/>
<line x1="195" y1="79.5" x2="156" y2="79.5" stroke="white"/>
<line x1="219" y1="105.5" x2="167" y2="105.5" stroke="white"/>
<line x1="111" y1="113.5" x2="104" y2="113.5" stroke="white"/>
<line x1="105" y1="113.5" x2="80" y2="113.5" stroke="#EA6371"/>
<line x1="223" y1="105.5" x2="219" y2="105.5" stroke="#EA6371"/>
<line x1="209" y1="79.5" x2="195" y2="79.5" stroke="#EA6371"/>
<line x1="209" y1="50.5" x2="188" y2="50.5" stroke="#EA6371"/>
</svg>
