<svg width="732" height="409" viewBox="0 0 732 409" fill="none" xmlns="http://www.w3.org/2000/svg">
<circle cx="352.5" cy="204.5" r="204.5" fill="white"/>
<mask id="mask0_309_3994" style="mask-type:alpha" maskUnits="userSpaceOnUse" x="148" y="0" width="409" height="409">
<circle cx="352.5" cy="204.5" r="204.5" fill="white"/>
</mask>
<g mask="url(#mask0_309_3994)">
<path fill-rule="evenodd" clip-rule="evenodd" d="M359.297 176.751H203.206C183.271 176.751 166.971 191.055 166.971 208.547C166.971 226.04 183.271 240.343 203.206 240.343H359.297C379.232 240.343 395.533 226.04 395.533 208.547C395.533 191.074 379.232 176.751 359.297 176.751Z" fill="#EA6371" fill-opacity="0.35"/>
<path fill-rule="evenodd" clip-rule="evenodd" d="M482.794 256.011H326.703C306.768 256.011 290.468 269.692 290.468 286.424C290.468 303.156 306.768 316.838 326.703 316.838H482.794C502.73 316.838 519.03 303.156 519.03 286.424C519.03 269.692 502.73 256.011 482.794 256.011Z" fill="#EA6371" fill-opacity="0.35"/>
<path d="M241.478 286.229C262.608 286.229 279.737 269.088 279.737 247.943C279.737 226.798 262.608 209.657 241.478 209.657C220.347 209.657 203.218 226.798 203.218 247.943C203.218 269.088 220.347 286.229 241.478 286.229Z" fill="#7D482E"/>
<path fill-rule="evenodd" clip-rule="evenodd" d="M225.24 187.374C215.837 187.374 208.288 193.185 205.72 201.41C209.182 195.353 215.703 191.33 223.521 191.33C224.414 191.33 225.307 191.374 226.179 191.486C214.721 192.447 205.72 202.058 205.72 213.769C205.72 226.129 215.726 236.142 228.077 236.142C240.428 236.142 250.434 226.129 250.434 213.769C250.434 210.64 249.787 207.668 248.625 204.963C245.565 194.906 235.961 187.374 225.24 187.374Z" fill="#7D482E"/>
<path d="M390.005 226.174C420.486 226.174 445.195 201.448 445.195 170.946C445.195 140.445 420.486 115.718 390.005 115.718C359.525 115.718 334.815 140.445 334.815 170.946C334.815 201.448 359.525 226.174 390.005 226.174Z" fill="#7D482E"/>
<path d="M393.87 273.512C427.495 273.512 454.755 246.234 454.755 212.585C454.755 178.936 427.495 151.658 393.87 151.658C360.244 151.658 332.984 178.936 332.984 212.585C332.984 246.234 360.244 273.512 393.87 273.512Z" fill="#7D482E"/>
<path d="M302.43 325.857C337.437 325.857 365.816 297.458 365.816 262.426C365.816 227.395 337.437 198.996 302.43 198.996C267.422 198.996 239.043 227.395 239.043 262.426C239.043 297.458 267.422 325.857 302.43 325.857Z" fill="#7D482E"/>
<path fill-rule="evenodd" clip-rule="evenodd" d="M322.866 213.322C287.867 213.322 259.479 241.73 259.479 276.753C259.479 293.739 266.158 309.161 277.012 320.559C284.785 323.979 293.384 325.857 302.43 325.857C337.429 325.857 365.816 297.449 365.816 262.426C365.816 245.44 359.138 230.018 348.283 218.619C340.488 215.222 331.889 213.322 322.866 213.322Z" fill="#703F26"/>
<path d="M352.282 270.74C391.915 270.74 424.044 238.589 424.044 198.929C424.044 159.268 391.915 127.117 352.282 127.117C312.649 127.117 280.52 159.268 280.52 198.929C280.52 238.589 312.649 270.74 352.282 270.74Z" fill="#703F26"/>
<path fill-rule="evenodd" clip-rule="evenodd" d="M380.156 231.471H344.063C307.031 231.471 276.745 261.778 276.745 298.835V409H447.451V298.835C447.474 261.8 417.187 231.471 380.156 231.471Z" fill="#FF7F48"/>
<path fill-rule="evenodd" clip-rule="evenodd" d="M299.995 248.033C285.79 260.415 276.767 278.608 276.767 298.835V409H309.443V258.09C306.628 254.425 303.479 251.05 299.995 248.033Z" fill="#FF5F1B"/>
<path fill-rule="evenodd" clip-rule="evenodd" d="M312.637 240.276C298.186 234.979 282.172 242.4 276.856 256.86L240.629 354.777C235.335 369.238 242.751 385.263 257.201 390.583C271.652 395.88 287.666 388.46 292.982 373.999L329.209 276.082C334.525 261.599 327.087 245.573 312.637 240.276Z" fill="#FF7F48"/>
<path fill-rule="evenodd" clip-rule="evenodd" d="M450.443 256.86C445.149 242.4 429.135 234.979 414.662 240.276C400.211 245.573 392.796 261.599 398.09 276.082L434.317 373.999C439.61 388.46 455.625 395.88 470.098 390.583C484.548 385.286 491.964 369.261 486.67 354.777L450.443 256.86Z" fill="#FF7F48"/>
<path d="M361.93 315.732C411.604 315.732 451.873 292.677 451.873 264.237C451.873 235.796 411.604 212.741 361.93 212.741C312.256 212.741 271.987 235.796 271.987 264.237C271.987 292.677 312.256 315.732 361.93 315.732Z" fill="#FFEA9F"/>
<path fill-rule="evenodd" clip-rule="evenodd" d="M404.545 244.948H379.039C372.718 244.948 367.536 250.133 367.536 256.459V315.643C385.694 314.994 402.401 311.284 416.048 305.384V256.459C416.048 250.133 410.866 244.948 404.545 244.948Z" fill="#FCCF8D"/>
<path fill-rule="evenodd" clip-rule="evenodd" d="M307.813 223.112C286.058 232.499 271.987 247.429 271.987 264.237C271.987 276.663 279.671 288.062 292.491 296.958C326.239 291.191 351.678 274.406 356.034 253.866C346.586 241.037 329.366 229.929 307.813 223.112Z" fill="#FFEA9F"/>
<path fill-rule="evenodd" clip-rule="evenodd" d="M307.813 223.112C299.616 226.643 292.513 230.979 286.84 235.896C284.875 239.606 283.825 243.54 283.825 247.608C283.825 269.914 315.407 287.995 354.381 287.995C356.771 287.995 359.139 287.928 361.462 287.794C362.601 285.157 363.36 282.385 363.717 279.524C366.576 256.749 342.968 234.198 307.813 223.112Z" fill="#FFEA9F"/>
<path fill-rule="evenodd" clip-rule="evenodd" d="M414.306 243.54H388.799C382.479 243.54 377.297 248.725 377.297 255.05V407.994C377.297 408.33 377.319 408.665 377.342 409H425.764C425.786 408.665 425.808 408.33 425.808 407.994V255.05C425.808 248.725 420.627 243.54 414.306 243.54Z" fill="#FFEA9F"/>
<path fill-rule="evenodd" clip-rule="evenodd" d="M361.93 212.741C336.848 212.741 314.178 218.62 297.873 228.096C295.35 232.164 293.965 236.545 293.965 241.104C293.965 262.583 324.385 280.016 361.93 280.016C399.453 280.016 429.895 262.605 429.895 241.104C429.895 236.545 428.511 232.164 425.987 228.096C409.682 218.62 387.012 212.741 361.93 212.741Z" fill="#EDC653"/>
<path d="M361.929 284.598C400.896 284.598 432.485 266.516 432.485 244.21C432.485 221.905 400.896 203.823 361.929 203.823C322.962 203.823 291.373 221.905 291.373 244.21C291.373 266.516 322.962 284.598 361.929 284.598Z" fill="#FCDAA7"/>
<path fill-rule="evenodd" clip-rule="evenodd" d="M338.188 206.17C310.917 211.758 291.396 226.688 291.396 244.211C291.396 258.917 305.132 271.791 325.658 278.854C352.929 273.266 372.472 258.336 372.472 240.813C372.428 226.107 358.714 213.233 338.188 206.17Z" fill="#FCCF8D"/>
<path fill-rule="evenodd" clip-rule="evenodd" d="M338.188 206.17C311.051 211.713 291.597 226.509 291.396 243.92C304.261 251.765 322.531 256.66 342.812 256.66C351.947 256.66 360.68 255.676 368.675 253.866C371.11 249.776 372.45 245.373 372.45 240.813C372.428 226.107 358.714 213.233 338.188 206.17Z" fill="#FFEA9F"/>
<path fill-rule="evenodd" clip-rule="evenodd" d="M361.93 203.823C342.253 203.823 324.474 208.427 311.676 215.87C309.688 219.066 308.616 222.508 308.616 226.084C308.616 242.936 332.492 256.592 361.93 256.592C391.367 256.592 415.243 242.936 415.243 226.084C415.243 222.508 414.171 219.066 412.184 215.87C399.386 208.427 381.607 203.823 361.93 203.823Z" fill="#FFCE20"/>
<path fill-rule="evenodd" clip-rule="evenodd" d="M361.93 203.823C342.253 203.823 324.474 208.427 311.676 215.87C309.688 219.066 308.616 222.508 308.616 226.084C308.616 241.282 328.048 253.888 353.465 256.212C386.454 253.352 411.96 237.393 413.278 217.882C412.943 217.189 412.563 216.518 412.161 215.87C399.386 208.427 381.607 203.823 361.93 203.823Z" fill="#FFEA9F"/>
<path fill-rule="evenodd" clip-rule="evenodd" d="M362.109 194.682C349.021 194.682 338.322 205.388 338.322 218.485V225.794C338.322 238.891 349.021 249.597 362.109 249.597C375.197 249.597 385.896 238.891 385.896 225.794V218.485C385.918 205.388 375.22 194.682 362.109 194.682Z" fill="#D98E77"/>
<path fill-rule="evenodd" clip-rule="evenodd" d="M362.109 68C324.698 68 294.099 98.62 294.099 136.057V145.869C294.099 183.306 324.698 213.926 362.109 213.926C399.52 213.926 430.119 183.306 430.119 145.869V136.057C430.119 98.62 399.52 68 362.109 68Z" fill="#703F26"/>
<path d="M305.87 173.873C313.703 173.873 320.053 167.259 320.053 159.1C320.053 150.941 313.703 144.326 305.87 144.326C298.037 144.326 291.688 150.941 291.688 159.1C291.688 167.259 298.037 173.873 305.87 173.873Z" fill="#FFD5C3"/>
<path d="M305.871 166.23C309.645 166.23 312.705 163.038 312.705 159.1C312.705 155.162 309.645 151.97 305.871 151.97C302.096 151.97 299.036 155.162 299.036 159.1C299.036 163.038 302.096 166.23 305.871 166.23Z" fill="#FFC2AE"/>
<path d="M418.371 173.873C426.204 173.873 432.554 167.259 432.554 159.1C432.554 150.941 426.204 144.326 418.371 144.326C410.538 144.326 404.188 150.941 404.188 159.1C404.188 167.259 410.538 173.873 418.371 173.873Z" fill="#FFCEBF"/>
<path d="M418.372 166.23C422.146 166.23 425.206 163.038 425.206 159.1C425.206 155.162 422.146 151.97 418.372 151.97C414.597 151.97 411.537 155.162 411.537 159.1C411.537 163.038 414.597 166.23 418.372 166.23Z" fill="#FFC2AE"/>
<path fill-rule="evenodd" clip-rule="evenodd" d="M362.108 92.0265C329.901 92.0265 303.568 118.378 303.568 150.607V179.372C303.568 211.579 329.901 237.952 362.108 237.952C394.293 237.952 420.648 211.601 420.648 179.372V150.607C420.648 118.4 394.315 92.0265 362.108 92.0265Z" fill="#FFDFD5"/>
<path fill-rule="evenodd" clip-rule="evenodd" d="M402.826 108.611C393.669 102.665 382.769 99.1787 371.088 99.1787C366.688 99.1787 362.4 99.6704 358.29 100.609C384.377 106.487 404.032 129.933 404.032 157.759V186.524C404.032 207.377 392.999 225.771 376.493 236.142C401.799 229.705 420.672 206.617 420.672 179.35V150.607C420.649 134.179 413.815 119.272 402.826 108.611Z" fill="#FFD5C4"/>
<path fill-rule="evenodd" clip-rule="evenodd" d="M374.929 93.4568C370.797 92.5181 366.508 92.0264 362.131 92.0264C329.946 92.0264 303.591 118.377 303.591 150.607V179.372C303.591 211.601 329.924 237.952 362.131 237.952C366.531 237.952 370.819 237.46 374.929 236.522C348.841 230.644 329.187 207.198 329.187 179.372V150.607C329.187 122.781 348.841 99.335 374.929 93.4568Z" fill="#FFDFD4"/>
<path fill-rule="evenodd" clip-rule="evenodd" d="M303.591 150.608V165.336C311.698 161.336 317.327 152.954 317.327 143.344V131.319C317.327 126.491 315.92 121.977 313.485 118.155C307.231 127.453 303.591 138.628 303.591 150.608Z" fill="#703F26"/>
<path fill-rule="evenodd" clip-rule="evenodd" d="M345.514 87.8473C330.795 87.8473 310.627 101.19 300.442 117.64C290.257 134.09 293.92 147.433 308.639 147.433C323.358 147.433 343.526 134.09 353.711 117.64C363.896 101.19 360.21 87.8473 345.514 87.8473Z" fill="#703F26"/>
<path fill-rule="evenodd" clip-rule="evenodd" d="M370.284 71.7993C351.969 73.0286 347.39 90.6407 360.076 111.114C372.763 131.587 397.89 147.187 416.227 145.958C434.541 144.729 439.12 127.117 426.434 106.644C413.725 86.1483 388.598 70.5477 370.284 71.7993Z" fill="#7D482E"/>
<path fill-rule="evenodd" clip-rule="evenodd" d="M350.356 160.548L321.666 161.326C327.015 173.72 346.814 176.691 350.356 160.548Z" fill="#FFC2AE"/>
<path fill-rule="evenodd" clip-rule="evenodd" d="M350.356 160.548L321.666 161.025C332.105 172.669 346.814 170.393 350.356 160.548Z" fill="#FFDCD2"/>
<path fill-rule="evenodd" clip-rule="evenodd" d="M321.666 160.75C325.932 165.997 330.95 168.529 335.548 168.878C334.2 166.493 333.139 163.539 332.918 160.548L321.666 160.75Z" fill="#FFC9B9"/>
<path fill-rule="evenodd" clip-rule="evenodd" d="M321.666 161.474L350.356 160.868C347.153 145.103 327.254 151.337 321.666 161.474Z" fill="#FFDCD2"/>
<path fill-rule="evenodd" clip-rule="evenodd" d="M321.951 161.313L333.32 161.067C333.119 157.826 333.565 154.518 335.106 151.613C329.746 152.842 324.408 156.664 321.951 161.313Z" fill="#FFC9B9"/>
<path fill-rule="evenodd" clip-rule="evenodd" d="M321.951 161.313C330.036 165.47 344.442 166.275 349.401 160.687C346.43 153.356 327.312 156.642 321.951 161.313Z" fill="#FFEFEC"/>
<path fill-rule="evenodd" clip-rule="evenodd" d="M330.081 157.625C329.813 158.631 329.679 159.659 329.679 160.754C329.679 161.872 329.835 162.967 330.103 163.995C337.518 165.403 345.849 164.666 349.378 160.687C347.346 155.636 337.652 155.636 330.081 157.625Z" fill="#FFEBE7"/>
<path fill-rule="evenodd" clip-rule="evenodd" d="M340.868 156.441C338.233 156.285 335.284 156.53 332.47 157.089C331.644 158.095 331.152 159.369 331.152 160.777C331.152 162.14 331.621 163.392 332.403 164.375C335.552 164.778 338.746 164.778 341.583 164.331C342.342 163.347 342.789 162.118 342.789 160.777C342.789 159.056 342.052 157.491 340.868 156.441Z" fill="#633A26"/>
<path d="M336.981 164.264C338.918 164.264 340.488 162.693 340.488 160.755C340.488 158.817 338.918 157.246 336.981 157.246C335.045 157.246 333.475 158.817 333.475 160.755C333.475 162.693 335.045 164.264 336.981 164.264Z" fill="#4D2C1B"/>
<path fill-rule="evenodd" clip-rule="evenodd" d="M336.513 162.007C336.245 161.917 336.021 161.738 335.887 161.515C335.731 161.291 335.641 161.045 335.641 160.755V160.643C335.664 160.263 335.396 159.928 334.994 159.883C334.614 159.861 334.279 160.129 334.234 160.531C334.234 160.598 334.234 160.688 334.234 160.755C334.234 161.314 334.413 161.872 334.726 162.319C335.038 162.766 335.485 163.124 336.021 163.325C336.379 163.459 336.781 163.281 336.915 162.901C337.071 162.543 336.87 162.141 336.513 162.007Z" fill="#80513A"/>
<path fill-rule="evenodd" clip-rule="evenodd" d="M349.289 158.631C347.167 156.195 343.058 155.301 338.546 155.39C332.203 155.524 324.899 158.72 321.951 161.313C326.686 159.212 330.483 157.58 338.591 157.402C342.544 157.312 346.095 158.027 347.77 159.95C348.061 160.285 348.284 160.642 348.463 161.067C348.664 161.581 349.267 161.827 349.781 161.626C350.294 161.425 350.54 160.821 350.339 160.307C350.071 159.681 349.714 159.123 349.289 158.631Z" fill="#633A26"/>
<path fill-rule="evenodd" clip-rule="evenodd" d="M402.183 161.326L374.419 160.548C377.847 176.691 397.007 173.72 402.183 161.326Z" fill="#FFC2AE"/>
<path fill-rule="evenodd" clip-rule="evenodd" d="M402.183 161.025L374.419 160.548C377.847 170.393 392.081 172.669 402.183 161.025Z" fill="#FFDCD2"/>
<path fill-rule="evenodd" clip-rule="evenodd" d="M388.301 168.878C392.899 168.529 397.917 165.997 402.183 160.75L390.931 160.548C390.71 163.539 389.649 166.493 388.301 168.878Z" fill="#FFC9B9"/>
<path fill-rule="evenodd" clip-rule="evenodd" d="M374.419 160.868L402.183 161.474C396.775 151.337 377.519 145.103 374.419 160.868Z" fill="#FFDCD2"/>
<path fill-rule="evenodd" clip-rule="evenodd" d="M389.156 151.613C390.675 154.518 391.144 157.826 390.943 161.067L402.312 161.313C399.832 156.664 394.494 152.842 389.156 151.613Z" fill="#FFC9B9"/>
<path fill-rule="evenodd" clip-rule="evenodd" d="M374.862 160.687C379.821 166.275 394.204 165.47 402.312 161.313C396.929 156.642 377.811 153.356 374.862 160.687Z" fill="#FFEFEC"/>
<path fill-rule="evenodd" clip-rule="evenodd" d="M374.862 160.687C378.391 164.688 386.722 165.403 394.137 163.995C394.405 162.967 394.562 161.872 394.562 160.754C394.562 159.682 394.428 158.631 394.16 157.625C386.588 155.636 376.895 155.636 374.862 160.687Z" fill="#FFEBE7"/>
<path fill-rule="evenodd" clip-rule="evenodd" d="M383.373 156.44C382.189 157.513 381.452 159.055 381.452 160.754C381.452 162.095 381.899 163.324 382.658 164.308C385.495 164.777 388.689 164.755 391.838 164.352C392.62 163.369 393.089 162.117 393.089 160.754C393.089 159.368 392.597 158.072 391.771 157.066C388.957 156.53 386.031 156.262 383.373 156.44Z" fill="#633A26"/>
<path d="M387.259 164.263C389.195 164.263 390.765 162.692 390.765 160.754C390.765 158.816 389.195 157.245 387.259 157.245C385.322 157.245 383.752 158.816 383.752 160.754C383.752 162.692 385.322 164.263 387.259 164.263Z" fill="#4D2C1B"/>
<path fill-rule="evenodd" clip-rule="evenodd" d="M389.223 159.905C388.844 159.927 388.553 160.262 388.576 160.665V160.776C388.576 161.067 388.486 161.313 388.33 161.536C388.174 161.76 387.95 161.916 387.704 162.028C387.347 162.162 387.168 162.564 387.28 162.922C387.414 163.28 387.816 163.458 388.174 163.347C388.71 163.145 389.156 162.788 389.469 162.341C389.782 161.894 389.96 161.357 389.96 160.776C389.96 160.709 389.96 160.642 389.96 160.553C389.938 160.151 389.603 159.882 389.223 159.905Z" fill="#80513A"/>
<path fill-rule="evenodd" clip-rule="evenodd" d="M374.952 158.631C374.528 159.145 374.17 159.703 373.925 160.307C373.724 160.821 373.969 161.402 374.483 161.626C374.997 161.827 375.577 161.581 375.801 161.067C375.979 160.642 376.203 160.285 376.493 159.949C378.168 158.027 381.719 157.312 385.673 157.401C393.78 157.58 397.577 159.212 402.312 161.313C399.364 158.72 392.061 155.524 385.717 155.39C381.183 155.278 377.074 156.194 374.952 158.631Z" fill="#633A26"/>
<path fill-rule="evenodd" clip-rule="evenodd" d="M367.894 205.991H356.325C354.27 205.991 352.595 207.668 352.595 209.724C352.595 211.78 354.27 213.456 356.325 213.456H367.894C369.949 213.456 371.624 211.78 371.624 209.724C371.624 207.668 369.949 205.991 367.894 205.991Z" fill="#EA6371"/>
<path fill-rule="evenodd" clip-rule="evenodd" d="M361.765 164.25C359.01 165.02 358.791 171.741 356.173 177.025C354.481 180.463 358.164 181.079 361.765 180.873C365.365 181.079 369.048 180.463 367.357 177.025C364.765 171.715 364.52 164.994 361.765 164.25Z" fill="#FFC2AE"/>
<path fill-rule="evenodd" clip-rule="evenodd" d="M406.936 131.319V143.344C406.936 152.954 412.542 161.336 420.672 165.336V150.608C420.672 138.628 417.031 127.453 410.799 118.155C408.343 121.954 406.936 126.469 406.936 131.319Z" fill="#7D482E"/>
<path fill-rule="evenodd" clip-rule="evenodd" d="M425.473 170.901C430.409 180.289 432.687 191.374 431.504 203.265C428.086 236.902 398.068 264.192 364.454 264.192C353.376 264.192 343.281 261.219 334.838 256.056C343.861 273.199 361.796 284.62 383.528 284.62C417.142 284.62 447.16 257.353 450.578 223.693C452.856 201.119 442.604 181.428 425.473 170.901Z" fill="#7D482E"/>
<path fill-rule="evenodd" clip-rule="evenodd" d="M446.424 211.937C436.306 244.166 398.091 270.294 361.082 270.294C354.783 270.294 348.909 269.534 343.571 268.126C353.421 278.34 367.425 284.598 383.529 284.598C417.143 284.598 447.161 257.33 450.578 223.671C451.382 215.803 450.645 208.294 448.635 201.41C448.278 204.829 447.541 208.338 446.424 211.937Z" fill="#824E34"/>
<path fill-rule="evenodd" clip-rule="evenodd" d="M417.388 200.359C420.381 205.053 421.766 210.641 421.051 216.586C418.974 233.46 400.771 247.139 380.379 247.139C373.656 247.139 367.537 245.641 362.422 243.049C367.894 251.654 378.771 257.375 391.971 257.375C412.363 257.375 430.588 243.697 432.643 226.822C434.005 215.535 427.796 205.656 417.388 200.359Z" fill="#7D482E"/>
<path fill-rule="evenodd" clip-rule="evenodd" d="M345.134 125.865C332.537 140.974 311.386 153.222 297.874 153.222C284.361 153.222 283.624 140.974 296.198 125.865C296.935 124.993 297.672 124.122 298.454 123.272C296.131 125.507 293.943 127.81 291.955 130.201C278.241 146.651 279.067 159.994 293.764 159.994C308.483 159.994 331.51 146.651 345.224 130.201C353.957 119.719 356.793 110.488 353.912 105.191C354.917 110.22 352.013 117.618 345.134 125.865Z" fill="#703F26"/>
<path d="M384.733 406.05C402.73 406.05 417.32 391.45 417.32 373.441C417.32 355.431 402.73 340.832 384.733 340.832C366.736 340.832 352.146 355.431 352.146 373.441C352.146 391.45 366.736 406.05 384.733 406.05Z" fill="#FCB39C"/>
<path fill-rule="evenodd" clip-rule="evenodd" d="M376.448 352.878L351.12 350.531C336.848 349.235 324.229 359.762 322.933 374.066C321.638 388.371 332.157 400.976 346.452 402.272L371.78 404.619C386.052 405.916 398.671 395.389 399.966 381.084C401.239 366.802 390.72 354.174 376.448 352.878Z" fill="white"/>
<path fill-rule="evenodd" clip-rule="evenodd" d="M352.951 369.641C353.018 370.669 353.889 371.451 354.917 371.384L398.046 368.725C397.51 367.473 396.906 366.266 396.192 365.126L354.693 367.697C353.666 367.741 352.884 368.613 352.951 369.641Z" fill="#E05A67"/>
<path fill-rule="evenodd" clip-rule="evenodd" d="M351.611 363.07L392.596 360.544C391.323 359.248 389.916 358.086 388.397 357.08L351.388 359.36C350.36 359.427 349.579 360.298 349.646 361.327C349.713 362.332 350.584 363.115 351.611 363.07Z" fill="#E05A67"/>
<path fill-rule="evenodd" clip-rule="evenodd" d="M349.087 388.974C348.797 389.957 349.333 390.986 350.316 391.298L385.56 402.094C387.035 401.356 388.442 400.484 389.759 399.501L351.388 387.745C350.405 387.432 349.378 387.991 349.087 388.974Z" fill="#FF7F48"/>
<path fill-rule="evenodd" clip-rule="evenodd" d="M352.771 385.309C352.593 386.314 353.285 387.275 354.29 387.454L394.783 394.428C395.587 393.355 396.324 392.215 396.972 391.03L354.915 383.789C353.91 383.632 352.95 384.303 352.771 385.309Z" fill="#FF7F48"/>
<path fill-rule="evenodd" clip-rule="evenodd" d="M355.631 373.239C354.604 373.239 353.777 374.066 353.755 375.072C353.755 376.1 354.581 376.927 355.586 376.949L399.988 377.396C399.921 376.145 399.765 374.893 399.519 373.686L355.631 373.239Z" fill="#E05A67"/>
<path fill-rule="evenodd" clip-rule="evenodd" d="M352.996 379.073C352.884 380.101 353.599 381.017 354.626 381.129L398.917 386.381C399.274 385.197 399.564 383.99 399.743 382.738L355.073 377.441C354.046 377.307 353.13 378.044 352.996 379.073Z" fill="#E05A67"/>
<path fill-rule="evenodd" clip-rule="evenodd" d="M369.458 349.906L270.424 336.764C255.192 334.775 241.21 345.525 239.245 360.768C237.257 376.011 248 390.003 263.232 391.969L362.266 405.111C377.498 407.101 391.48 396.35 393.445 381.107C395.433 365.864 384.69 351.895 369.458 349.906Z" fill="#FF9568"/>
<path fill-rule="evenodd" clip-rule="evenodd" d="M240.205 356.297C239.758 357.728 239.423 359.225 239.222 360.768C237.234 376.011 247.978 390.002 263.21 391.969L263.835 392.058C264.505 389.533 264.885 386.828 264.885 384.057C264.885 368.724 253.829 356.297 240.205 356.297Z" fill="#FF7F48"/>
<path d="M365.281 386.761C383.278 386.761 397.868 372.161 397.868 354.152C397.868 336.142 383.278 321.542 365.281 321.542C347.284 321.542 332.694 336.142 332.694 354.152C332.694 372.161 347.284 386.761 365.281 386.761Z" fill="#FBBEAC"/>
<path fill-rule="evenodd" clip-rule="evenodd" d="M399.899 332.695L374.571 330.348C360.299 329.052 347.68 339.579 346.384 353.883C345.089 368.165 355.609 380.793 369.903 382.09L395.231 384.436C409.503 385.733 422.122 375.206 423.418 360.901C424.713 346.62 414.193 333.969 399.899 332.695Z" fill="white"/>
<path fill-rule="evenodd" clip-rule="evenodd" d="M393.332 355.917C393.444 354.889 392.729 353.972 391.702 353.86L347.411 348.608C347.054 349.793 346.764 351 346.585 352.251L391.255 357.548C392.282 357.66 393.22 356.922 393.332 355.917Z" fill="#FF7F48"/>
<path fill-rule="evenodd" clip-rule="evenodd" d="M393.556 349.659C393.735 348.653 393.043 347.692 392.038 347.514L351.544 340.54C350.74 341.613 350.003 342.753 349.355 343.938L391.412 351.179C392.417 351.358 393.378 350.665 393.556 349.659Z" fill="#FF7F48"/>
<path fill-rule="evenodd" clip-rule="evenodd" d="M392.573 359.873C392.573 358.845 391.747 358.018 390.742 357.996L346.34 357.549C346.407 358.8 346.563 360.052 346.809 361.259L390.742 361.706C391.725 361.728 392.551 360.901 392.573 359.873Z" fill="#FF7F48"/>
<path fill-rule="evenodd" clip-rule="evenodd" d="M394.74 371.92L353.755 374.445C355.028 375.742 356.435 376.904 357.954 377.91L394.963 375.63C395.99 375.563 396.772 374.691 396.705 373.663C396.638 372.635 395.745 371.853 394.74 371.92Z" fill="#FF7F48"/>
<path fill-rule="evenodd" clip-rule="evenodd" d="M396.013 343.691L360.768 332.896C359.294 333.634 357.887 334.505 356.569 335.489L394.941 347.245C395.924 347.536 396.951 346.999 397.264 346.016C397.554 345.032 396.996 343.982 396.013 343.691Z" fill="#FF7F48"/>
<path fill-rule="evenodd" clip-rule="evenodd" d="M393.378 365.327C393.311 364.298 392.439 363.516 391.412 363.583L348.283 366.243C348.819 367.495 349.422 368.702 350.137 369.841L391.635 367.271C392.663 367.226 393.445 366.355 393.378 365.327Z" fill="#FF7F48"/>
<path fill-rule="evenodd" clip-rule="evenodd" d="M462.996 336.652L389.939 329.902C374.639 328.516 361.104 339.803 359.72 355.113C358.335 370.423 369.614 383.967 384.913 385.353L457.971 392.103C473.271 393.489 486.806 382.202 488.19 366.892C489.575 351.582 478.296 338.037 462.996 336.652Z" fill="#FF9568"/>
<path fill-rule="evenodd" clip-rule="evenodd" d="M459.446 392.192C474.12 392.751 486.829 381.71 488.169 366.892C488.214 366.288 488.258 365.685 488.281 365.081C486.941 364.835 485.556 364.679 484.126 364.679C470.591 364.679 459.58 376.972 459.446 392.192Z" fill="#FF7F48"/>
<path fill-rule="evenodd" clip-rule="evenodd" d="M341.471 142.941C340.131 143.79 335.753 145.936 330.594 147.009C327.534 147.657 324.206 147.903 321.191 147.255C320.186 147.031 319.203 147.679 318.98 148.685C318.756 149.691 319.404 150.674 320.409 150.898C323.983 151.68 327.824 151.39 331.353 150.652C337.026 149.467 341.94 147.054 343.459 146.092C344.33 145.556 344.576 144.394 344.039 143.522C343.481 142.673 342.342 142.405 341.471 142.941Z" fill="#7D482E"/>
<path fill-rule="evenodd" clip-rule="evenodd" d="M403.027 147.255C400.011 147.925 396.706 147.657 393.623 147.009C388.464 145.936 384.086 143.79 382.746 142.941C381.875 142.405 380.736 142.651 380.178 143.522C379.642 144.394 379.887 145.534 380.759 146.093C382.277 147.054 387.191 149.467 392.864 150.652C396.393 151.39 400.235 151.68 403.808 150.898C404.813 150.674 405.461 149.691 405.238 148.685C405.037 147.679 404.032 147.031 403.027 147.255Z" fill="#7D482E"/>
<path fill-rule="evenodd" clip-rule="evenodd" d="M425.362 313.988C424.111 312.558 421.944 312.379 420.493 313.631C419.063 314.882 418.884 317.05 420.135 318.503L423.039 321.833C424.29 323.264 426.456 323.442 427.908 322.191C429.337 320.939 429.516 318.771 428.265 317.318L425.362 313.988Z" fill="#FFEFC0"/>
<path fill-rule="evenodd" clip-rule="evenodd" d="M382.478 303.148C381.048 301.897 378.86 302.053 377.609 303.506L374.705 306.836C373.454 308.267 373.611 310.457 375.063 311.709C376.492 312.96 378.681 312.804 379.932 311.351L382.835 308.021C384.064 306.59 383.907 304.4 382.478 303.148Z" fill="#FFEFC0"/>
<path fill-rule="evenodd" clip-rule="evenodd" d="M443.876 283.011C442.626 281.58 440.459 281.402 439.007 282.653C437.578 283.905 437.399 286.073 438.65 287.526L441.553 290.856C442.804 292.286 444.971 292.465 446.422 291.213C447.852 289.962 448.031 287.794 446.78 286.341L443.876 283.011Z" fill="#FFEFC0"/>
<path fill-rule="evenodd" clip-rule="evenodd" d="M321.481 302.724C320.051 301.472 317.862 301.629 316.612 303.081L313.708 306.412C312.457 307.842 312.614 310.032 314.066 311.284C315.495 312.536 317.684 312.379 318.935 310.926L321.838 307.596C323.067 306.144 322.91 303.976 321.481 302.724Z" fill="#FFE9A9"/>
<path fill-rule="evenodd" clip-rule="evenodd" d="M281.167 246.312L277.594 243.719C276.053 242.601 273.908 242.937 272.769 244.479C271.653 246.021 271.988 248.167 273.529 249.307L277.102 251.899C278.643 253.017 280.788 252.681 281.927 251.139C283.043 249.597 282.708 247.451 281.167 246.312Z" fill="#FFF3D0"/>
<path fill-rule="evenodd" clip-rule="evenodd" d="M306.092 221.145L302.519 218.552C300.977 217.434 298.833 217.77 297.694 219.312C296.577 220.854 296.912 223 298.454 224.14L302.027 226.732C303.568 227.85 305.712 227.515 306.851 225.972C307.968 224.43 307.633 222.262 306.092 221.145Z" fill="#FFF3D0"/>
<path fill-rule="evenodd" clip-rule="evenodd" d="M376.135 116.008C363.449 95.5353 368.028 77.9232 386.342 76.694C388.42 76.5599 390.586 76.6269 392.797 76.8951C385.002 73.252 377.163 71.3299 370.284 71.7992C351.969 73.0285 347.39 90.6406 360.076 111.114C371.333 129.262 392.373 143.589 409.749 145.734C396.818 139.677 384.064 128.793 376.135 116.008Z" fill="#703F26"/>
<path fill-rule="evenodd" clip-rule="evenodd" d="M391.278 88.9202C381.652 89.5683 379.24 98.8214 385.918 109.572C392.574 120.322 405.796 128.525 415.422 127.877C425.049 127.229 427.461 117.976 420.783 107.225C414.105 96.4523 400.905 88.2497 391.278 88.9202Z" fill="#824E34"/>
<path fill-rule="evenodd" clip-rule="evenodd" d="M361.764 174.431C357.051 174.431 354.823 179.331 354.823 183.544C354.823 188.201 357.937 192.015 361.764 192.015C365.578 192.015 368.705 188.201 368.705 183.544C368.705 179.353 366.477 174.431 361.764 174.431Z" fill="#FFC2AE"/>
<path fill-rule="evenodd" clip-rule="evenodd" d="M361.75 189.55C358.208 189.55 355.28 187.791 354.866 185.536C354.838 185.792 354.823 186.032 354.823 186.273C354.823 189.429 357.937 192.015 361.764 192.015C365.578 192.015 368.705 189.429 368.705 186.273C368.705 186.032 368.691 185.777 368.663 185.536C368.22 187.791 365.292 189.55 361.75 189.55Z" fill="#FFC9B9"/>
<circle cx="311.104" cy="139.894" r="5.64776" fill="white"/>
<circle cx="311.105" cy="139.894" r="3.0411" fill="#EA6371"/>
</g>
<path d="M215 301.492C230.124 301.492 242.384 299.347 242.384 296.701C242.384 294.055 230.124 291.91 215 291.91C199.876 291.91 187.615 294.055 187.615 296.701C187.615 299.347 199.876 301.492 215 301.492Z" fill="white"/>
<path d="M220.3 273.39V227.61C220.3 226.204 219.742 224.856 218.748 223.862C217.754 222.868 216.406 222.31 215 222.31C213.595 222.31 212.247 222.868 211.253 223.862C210.259 224.856 209.7 226.204 209.7 227.61V273.39C207.062 274.6 204.916 276.675 203.62 279.271C202.323 281.868 201.954 284.83 202.573 287.666C203.192 290.501 204.762 293.04 207.022 294.86C209.283 296.681 212.098 297.673 215 297.673C217.903 297.673 220.718 296.681 222.978 294.86C225.239 293.04 226.809 290.501 227.428 287.666C228.047 284.83 227.677 281.868 226.381 279.271C225.084 276.675 222.939 274.6 220.3 273.39V273.39Z" fill="white"/>
<path d="M215 297.994C212.042 297.994 209.173 296.988 206.862 295.142C204.552 293.296 202.937 290.719 202.284 287.835C201.631 284.95 201.977 281.929 203.267 279.268C204.557 276.606 206.713 274.462 209.382 273.188V227.61C209.382 226.12 209.974 224.691 211.027 223.637C212.081 222.584 213.51 221.992 215 221.992C216.49 221.992 217.919 222.584 218.972 223.637C220.026 224.691 220.618 226.12 220.618 227.61V273.188C223.287 274.462 225.443 276.606 226.733 279.268C228.022 281.929 228.369 284.95 227.716 287.835C227.063 290.719 225.448 293.296 223.138 295.142C220.827 296.988 217.957 297.994 215 297.994ZM215 222.628C213.679 222.629 212.413 223.155 211.479 224.089C210.545 225.023 210.019 226.289 210.018 227.61V273.39C210.018 273.451 210 273.511 209.968 273.562C209.935 273.613 209.888 273.654 209.833 273.679C207.26 274.858 205.168 276.882 203.904 279.413C202.64 281.945 202.28 284.833 202.883 287.598C203.487 290.363 205.018 292.838 207.222 294.613C209.426 296.388 212.17 297.355 215 297.355C217.83 297.355 220.575 296.388 222.779 294.613C224.983 292.838 226.513 290.363 227.117 287.598C227.72 284.833 227.36 281.945 226.096 279.413C224.832 276.882 222.74 274.858 220.168 273.679C220.112 273.654 220.065 273.613 220.032 273.562C220 273.511 219.982 273.451 219.982 273.39V227.61C219.98 226.289 219.455 225.023 218.521 224.089C217.587 223.155 216.321 222.629 215 222.628Z" fill="#171819"/>
<path d="M215 295.556C212.581 295.556 210.235 294.728 208.352 293.211C206.468 291.693 205.16 289.578 204.644 287.214C204.128 284.851 204.436 282.383 205.517 280.218C206.598 278.054 208.386 276.325 210.585 275.317L211.82 274.75V244.128C211.82 243.285 212.155 242.476 212.752 241.88C213.348 241.283 214.157 240.948 215 240.948C215.844 240.948 216.652 241.283 217.249 241.88C217.845 242.476 218.18 243.285 218.18 244.128V274.75L219.416 275.317C221.615 276.325 223.403 278.054 224.483 280.218C225.564 282.383 225.872 284.851 225.356 287.214C224.841 289.578 223.533 291.693 221.649 293.211C219.765 294.728 217.419 295.556 215 295.556Z" fill="#FF4F7C"/>
<path d="M226.766 237.25H223.891C223.722 237.25 223.56 237.183 223.441 237.063C223.322 236.944 223.255 236.782 223.255 236.614C223.255 236.445 223.322 236.283 223.441 236.164C223.56 236.045 223.722 235.978 223.891 235.978H226.766C226.934 235.978 227.096 236.045 227.215 236.164C227.335 236.283 227.402 236.445 227.402 236.614C227.402 236.782 227.335 236.944 227.215 237.063C227.096 237.183 226.934 237.25 226.766 237.25Z" fill="white"/>
<path d="M226.766 243.921H223.891C223.722 243.921 223.56 243.854 223.441 243.735C223.322 243.616 223.255 243.454 223.255 243.285C223.255 243.117 223.322 242.955 223.441 242.836C223.56 242.716 223.722 242.649 223.891 242.649H226.766C226.934 242.649 227.096 242.716 227.215 242.836C227.335 242.955 227.402 243.117 227.402 243.285C227.402 243.454 227.335 243.616 227.215 243.735C227.096 243.854 226.934 243.921 226.766 243.921Z" fill="white"/>
<path d="M229.628 250.593H223.891C223.722 250.593 223.56 250.526 223.441 250.407C223.322 250.287 223.255 250.125 223.255 249.957C223.255 249.788 223.322 249.626 223.441 249.507C223.56 249.388 223.722 249.321 223.891 249.321H229.628C229.796 249.321 229.958 249.388 230.077 249.507C230.197 249.626 230.264 249.788 230.264 249.957C230.264 250.125 230.197 250.287 230.077 250.407C229.958 250.526 229.796 250.593 229.628 250.593V250.593Z" fill="white"/>
<path d="M226.766 257.264H223.891C223.722 257.264 223.56 257.197 223.441 257.078C223.322 256.959 223.255 256.797 223.255 256.628C223.255 256.46 223.322 256.298 223.441 256.178C223.56 256.059 223.722 255.992 223.891 255.992H226.766C226.934 255.992 227.096 256.059 227.215 256.178C227.335 256.298 227.402 256.46 227.402 256.628C227.402 256.797 227.335 256.959 227.215 257.078C227.096 257.197 226.934 257.264 226.766 257.264Z" fill="white"/>
<path d="M226.766 263.936H223.891C223.722 263.936 223.56 263.869 223.441 263.75C223.322 263.631 223.255 263.469 223.255 263.3C223.255 263.131 223.322 262.97 223.441 262.85C223.56 262.731 223.722 262.664 223.891 262.664H226.766C226.934 262.664 227.096 262.731 227.215 262.85C227.335 262.97 227.402 263.131 227.402 263.3C227.402 263.469 227.335 263.631 227.215 263.75C227.096 263.869 226.934 263.936 226.766 263.936Z" fill="white"/>
<path d="M229.628 270.607H223.891C223.722 270.607 223.56 270.54 223.441 270.421C223.322 270.302 223.255 270.14 223.255 269.971C223.255 269.803 223.322 269.641 223.441 269.522C223.56 269.402 223.722 269.335 223.891 269.335H229.628C229.796 269.335 229.958 269.402 230.077 269.522C230.197 269.641 230.264 269.803 230.264 269.971C230.264 270.14 230.197 270.302 230.077 270.421C229.958 270.54 229.796 270.607 229.628 270.607Z" fill="white"/>
<path d="M229.628 230.578H223.891C223.722 230.578 223.56 230.511 223.441 230.391C223.322 230.272 223.255 230.11 223.255 229.942C223.255 229.773 223.322 229.611 223.441 229.492C223.56 229.373 223.722 229.306 223.891 229.306H229.628C229.796 229.306 229.958 229.373 230.077 229.492C230.197 229.611 230.264 229.773 230.264 229.942C230.264 230.11 230.197 230.272 230.077 230.391C229.958 230.511 229.796 230.578 229.628 230.578Z" fill="white"/>
<circle cx="208.5" cy="250.5" r="6.5" fill="white"/>
<circle cx="208.5" cy="250.5" r="3.5" fill="#EA6371"/>
<path d="M23.28 131.8H29.52V132.856H24.4V143H23.28V131.8ZM36.074 141.992C35.2527 142.792 34.2607 143.192 33.098 143.192C31.914 143.192 30.9167 142.792 30.106 141.992C29.2953 141.181 28.89 140.184 28.89 139C28.89 137.816 29.2953 136.824 30.106 136.024C30.9167 135.213 31.914 134.808 33.098 134.808C34.2713 134.808 35.2633 135.213 36.074 136.024C36.8953 136.824 37.306 137.816 37.306 139C37.306 140.173 36.8953 141.171 36.074 141.992ZM30.858 141.256C31.466 141.864 32.2127 142.168 33.098 142.168C33.9833 142.168 34.73 141.864 35.338 141.256C35.946 140.627 36.25 139.875 36.25 139C36.25 138.115 35.946 137.368 35.338 136.76C34.73 136.141 33.9833 135.832 33.098 135.832C32.2127 135.832 31.466 136.141 30.858 136.76C30.25 137.368 29.946 138.115 29.946 139C29.946 139.875 30.25 140.627 30.858 141.256ZM39.5926 135H45.3206V143H44.2646V136.024H40.6486V139.592C40.6486 140.925 40.3926 141.843 39.8806 142.344C39.3793 142.845 38.686 143.064 37.8006 143V142.008C38.4193 142.072 38.8726 141.923 39.1606 141.56C39.4486 141.197 39.5926 140.541 39.5926 139.592V135ZM54.2615 141.992C53.4402 142.792 52.4482 143.192 51.2855 143.192C50.1015 143.192 49.1042 142.792 48.2935 141.992C47.4828 141.181 47.0775 140.184 47.0775 139C47.0775 137.816 47.4828 136.824 48.2935 136.024C49.1042 135.213 50.1015 134.808 51.2855 134.808C52.4588 134.808 53.4508 135.213 54.2615 136.024C55.0828 136.824 55.4935 137.816 55.4935 139C55.4935 140.173 55.0828 141.171 54.2615 141.992ZM49.0455 141.256C49.6535 141.864 50.4002 142.168 51.2855 142.168C52.1708 142.168 52.9175 141.864 53.5255 141.256C54.1335 140.627 54.4375 139.875 54.4375 139C54.4375 138.115 54.1335 137.368 53.5255 136.76C52.9175 136.141 52.1708 135.832 51.2855 135.832C50.4002 135.832 49.6535 136.141 49.0455 136.76C48.4375 137.368 48.1335 138.115 48.1335 139C48.1335 139.875 48.4375 140.627 49.0455 141.256ZM62.3486 138.888C63.2233 139.208 63.6606 139.832 63.6606 140.76C63.6606 141.421 63.4366 141.96 62.9886 142.376C62.5513 142.792 61.938 143 61.1486 143H57.2606V135H60.8286C61.5966 135 62.194 135.197 62.6206 135.592C63.058 135.987 63.2766 136.504 63.2766 137.144C63.2766 137.944 62.9673 138.525 62.3486 138.888ZM60.8286 136.024H58.3166V138.456H60.8286C61.7566 138.456 62.2206 138.04 62.2206 137.208C62.2206 136.835 62.098 136.547 61.8526 136.344C61.618 136.131 61.2766 136.024 60.8286 136.024ZM58.3166 141.976H61.1486C61.618 141.976 61.9753 141.864 62.2206 141.64C62.4766 141.416 62.6046 141.101 62.6046 140.696C62.6046 140.312 62.4766 140.013 62.2206 139.8C61.9753 139.587 61.618 139.48 61.1486 139.48H58.3166V141.976ZM70.9246 138.488V135H71.9806V143H70.9246V139.512H66.3166V143H65.2606V135H66.3166V138.488H70.9246ZM81.0938 136.568V135H82.1498V143H81.0938V141.432C80.3578 142.605 79.2804 143.192 77.8618 143.192C76.7204 143.192 75.7444 142.787 74.9338 141.976C74.1338 141.165 73.7338 140.173 73.7338 139C73.7338 137.827 74.1338 136.835 74.9338 136.024C75.7444 135.213 76.7204 134.808 77.8618 134.808C79.2804 134.808 80.3578 135.395 81.0938 136.568ZM75.7018 141.256C76.3098 141.864 77.0564 142.168 77.9418 142.168C78.8271 142.168 79.5738 141.864 80.1818 141.256C80.7898 140.627 81.0938 139.875 81.0938 139C81.0938 138.115 80.7898 137.368 80.1818 136.76C79.5738 136.141 78.8271 135.832 77.9418 135.832C77.0564 135.832 76.3098 136.141 75.7018 136.76C75.0938 137.368 74.7898 138.115 74.7898 139C74.7898 139.875 75.0938 140.627 75.7018 141.256ZM86.8976 135H90.1456V143H89.0896V139.928H87.7136L85.2496 143H83.9056L86.4336 139.896C85.783 139.8 85.2496 139.533 84.8336 139.096C84.4283 138.648 84.2256 138.109 84.2256 137.48C84.2256 136.765 84.4816 136.173 84.9936 135.704C85.527 135.235 86.1616 135 86.8976 135ZM86.8976 138.936H89.0896V136.024H86.8976C86.439 136.024 86.055 136.163 85.7456 136.44C85.4363 136.707 85.2816 137.053 85.2816 137.48C85.2816 137.907 85.4363 138.259 85.7456 138.536C86.055 138.803 86.439 138.936 86.8976 138.936ZM99.9376 143.192C98.7963 143.192 97.8363 142.813 97.0576 142.056C96.2896 141.288 95.9056 140.296 95.9056 139.08C95.9056 137.715 96.1083 136.669 96.5136 135.944C96.919 135.208 97.7403 134.541 98.9776 133.944C99.3723 133.763 99.6816 133.624 99.9056 133.528C100.279 133.379 100.572 133.251 100.786 133.144C101.714 132.717 102.183 132.189 102.194 131.56L103.026 132.04C102.972 132.307 102.887 132.547 102.77 132.76C102.631 132.995 102.492 133.181 102.354 133.32C102.226 133.459 102.023 133.608 101.746 133.768C101.564 133.875 101.346 133.992 101.09 134.12L100.29 134.456L99.5376 134.776C98.8016 135.096 98.2523 135.432 97.8896 135.784C97.5376 136.125 97.287 136.573 97.1376 137.128C97.479 136.669 97.927 136.323 98.4816 136.088C99.0363 135.843 99.5963 135.72 100.162 135.72C101.228 135.72 102.108 136.072 102.802 136.776C103.506 137.469 103.858 138.36 103.858 139.448C103.858 140.525 103.484 141.421 102.738 142.136C102.002 142.84 101.068 143.192 99.9376 143.192ZM97.8576 141.352C98.4123 141.875 99.1056 142.136 99.9376 142.136C100.77 142.136 101.452 141.885 101.986 141.384C102.53 140.872 102.802 140.227 102.802 139.448C102.802 138.659 102.546 138.013 102.034 137.512C101.532 137 100.86 136.744 100.018 136.744C99.2603 136.744 98.5723 136.984 97.9536 137.464C97.335 137.923 97.0256 138.552 97.0256 139.352C97.0256 140.163 97.303 140.829 97.8576 141.352ZM112.168 141.992C111.346 142.792 110.354 143.192 109.192 143.192C108.008 143.192 107.01 142.792 106.2 141.992C105.389 141.181 104.984 140.184 104.984 139C104.984 137.816 105.389 136.824 106.2 136.024C107.01 135.213 108.008 134.808 109.192 134.808C110.365 134.808 111.357 135.213 112.168 136.024C112.989 136.824 113.4 137.816 113.4 139C113.4 140.173 112.989 141.171 112.168 141.992ZM106.952 141.256C107.56 141.864 108.306 142.168 109.192 142.168C110.077 142.168 110.824 141.864 111.432 141.256C112.04 140.627 112.344 139.875 112.344 139C112.344 138.115 112.04 137.368 111.432 136.76C110.824 136.141 110.077 135.832 109.192 135.832C108.306 135.832 107.56 136.141 106.952 136.76C106.344 137.368 106.04 138.115 106.04 139C106.04 139.875 106.344 140.627 106.952 141.256ZM115.686 135H121.414V143H120.358V136.024H116.742V139.592C116.742 140.925 116.486 141.843 115.974 142.344C115.473 142.845 114.78 143.064 113.894 143V142.008C114.513 142.072 114.966 141.923 115.254 141.56C115.542 141.197 115.686 140.541 115.686 139.592V135ZM124.707 138.04H126.899C127.635 138.04 128.265 138.275 128.787 138.744C129.31 139.203 129.571 139.795 129.571 140.52C129.571 141.256 129.31 141.853 128.787 142.312C128.286 142.771 127.657 143 126.899 143H123.651V135H124.707V138.04ZM124.707 141.976H126.899C127.358 141.976 127.742 141.843 128.051 141.576C128.361 141.299 128.515 140.947 128.515 140.52C128.515 140.093 128.361 139.747 128.051 139.48C127.742 139.203 127.358 139.064 126.899 139.064H124.707V141.976Z" fill="black"/>
<path d="M596.48 174.712V169.8H597.6V181H596.48V175.768H590.4V181H589.28V169.8H590.4V174.712H596.48ZM606.875 174.568V173H607.931V181H606.875V179.432C606.139 180.605 605.062 181.192 603.643 181.192C602.502 181.192 601.526 180.787 600.715 179.976C599.915 179.165 599.515 178.173 599.515 177C599.515 175.827 599.915 174.835 600.715 174.024C601.526 173.213 602.502 172.808 603.643 172.808C605.062 172.808 606.139 173.395 606.875 174.568ZM601.483 179.256C602.091 179.864 602.838 180.168 603.723 180.168C604.608 180.168 605.355 179.864 605.963 179.256C606.571 178.627 606.875 177.875 606.875 177C606.875 176.115 606.571 175.368 605.963 174.76C605.355 174.141 604.608 173.832 603.723 173.832C602.838 173.832 602.091 174.141 601.483 174.76C600.875 175.368 600.571 176.115 600.571 177C600.571 177.875 600.875 178.627 601.483 179.256ZM613.895 181.192C612.69 181.192 611.687 180.792 610.887 179.992C610.087 179.171 609.687 178.173 609.687 177C609.687 175.816 610.087 174.824 610.887 174.024C611.687 173.213 612.69 172.808 613.895 172.808C614.684 172.808 615.394 173 616.023 173.384C616.652 173.757 617.111 174.264 617.399 174.904L616.535 175.4C616.322 174.92 615.975 174.541 615.495 174.264C615.026 173.976 614.492 173.832 613.895 173.832C613.01 173.832 612.263 174.141 611.655 174.76C611.047 175.368 610.743 176.115 610.743 177C610.743 177.875 611.047 178.627 611.655 179.256C612.263 179.864 613.01 180.168 613.895 180.168C614.482 180.168 615.01 180.029 615.479 179.752C615.959 179.475 616.332 179.091 616.599 178.6L617.479 179.112C617.148 179.752 616.663 180.259 616.023 180.632C615.383 181.005 614.674 181.192 613.895 181.192ZM625.619 173H626.835V181H625.779V174.616L622.979 179.16H622.851L620.051 174.616V181H618.995V173H620.211L622.915 177.384L625.619 173ZM635.777 179.992C634.956 180.792 633.964 181.192 632.801 181.192C631.617 181.192 630.62 180.792 629.809 179.992C628.998 179.181 628.593 178.184 628.593 177C628.593 175.816 628.998 174.824 629.809 174.024C630.62 173.213 631.617 172.808 632.801 172.808C633.974 172.808 634.966 173.213 635.777 174.024C636.598 174.824 637.009 175.816 637.009 177C637.009 178.173 636.598 179.171 635.777 179.992ZM630.561 179.256C631.169 179.864 631.916 180.168 632.801 180.168C633.686 180.168 634.433 179.864 635.041 179.256C635.649 178.627 635.953 177.875 635.953 177C635.953 176.115 635.649 175.368 635.041 174.76C634.433 174.141 633.686 173.832 632.801 173.832C631.916 173.832 631.169 174.141 630.561 174.76C629.953 175.368 629.649 176.115 629.649 177C629.649 177.875 629.953 178.627 630.561 179.256ZM643.064 172.808C644.206 172.808 645.176 173.213 645.976 174.024C646.787 174.835 647.192 175.827 647.192 177C647.192 178.173 646.787 179.165 645.976 179.976C645.176 180.787 644.206 181.192 643.064 181.192C641.646 181.192 640.568 180.605 639.832 179.432V184.2H638.776V173H639.832V174.568C640.568 173.395 641.646 172.808 643.064 172.808ZM640.744 179.256C641.352 179.864 642.099 180.168 642.984 180.168C643.87 180.168 644.616 179.864 645.224 179.256C645.832 178.627 646.136 177.875 646.136 177C646.136 176.115 645.832 175.368 645.224 174.76C644.616 174.141 643.87 173.832 642.984 173.832C642.099 173.832 641.352 174.141 640.744 174.76C640.136 175.368 639.832 176.115 639.832 177C639.832 177.875 640.136 178.627 640.744 179.256ZM651.124 176.84L655.412 181H654.004L650.004 177.144V181H648.948V173H650.004V176.536L653.812 173H655.252L651.124 176.84Z" fill="black"/>
<path d="M626.448 300.208C627.067 300.443 627.547 300.8 627.888 301.28C628.229 301.76 628.4 302.325 628.4 302.976C628.4 303.915 628.048 304.688 627.344 305.296C626.651 305.893 625.712 306.192 624.528 306.192C623.504 306.192 622.667 305.963 622.016 305.504C621.365 305.045 620.907 304.432 620.64 303.664L621.6 303.12C621.749 303.728 622.064 304.219 622.544 304.592C623.024 304.955 623.685 305.136 624.528 305.136C625.381 305.136 626.053 304.939 626.544 304.544C627.035 304.149 627.28 303.627 627.28 302.976C627.28 302.325 627.056 301.803 626.608 301.408C626.16 301.013 625.552 300.816 624.784 300.816H623.504V299.76H624.384C625.141 299.76 625.744 299.573 626.192 299.2C626.64 298.816 626.864 298.315 626.864 297.696C626.864 297.088 626.645 296.597 626.208 296.224C625.771 295.851 625.184 295.664 624.448 295.664C623.072 295.664 622.165 296.251 621.728 297.424L620.8 296.88C621.419 295.365 622.635 294.608 624.448 294.608C625.493 294.608 626.347 294.907 627.008 295.504C627.659 296.091 627.984 296.827 627.984 297.712C627.984 298.832 627.472 299.664 626.448 300.208ZM637.047 299.568V298H638.103V306H637.047V304.432C636.311 305.605 635.234 306.192 633.815 306.192C632.674 306.192 631.698 305.787 630.887 304.976C630.087 304.165 629.687 303.173 629.687 302C629.687 300.827 630.087 299.835 630.887 299.024C631.698 298.213 632.674 297.808 633.815 297.808C635.234 297.808 636.311 298.395 637.047 299.568ZM631.655 304.256C632.263 304.864 633.01 305.168 633.895 305.168C634.78 305.168 635.527 304.864 636.135 304.256C636.743 303.627 637.047 302.875 637.047 302C637.047 301.115 636.743 300.368 636.135 299.76C635.527 299.141 634.78 298.832 633.895 298.832C633.01 298.832 632.263 299.141 631.655 299.76C631.047 300.368 630.743 301.115 630.743 302C630.743 302.875 631.047 303.627 631.655 304.256ZM639.379 298H646.099V299.024H643.267V306H642.211V299.024H639.379V298ZM651.674 297.808C652.815 297.808 653.786 298.213 654.586 299.024C655.396 299.835 655.802 300.827 655.802 302C655.802 303.173 655.396 304.165 654.586 304.976C653.786 305.787 652.815 306.192 651.674 306.192C650.255 306.192 649.178 305.605 648.442 304.432V309.2H647.386V298H648.442V299.568C649.178 298.395 650.255 297.808 651.674 297.808ZM649.354 304.256C649.962 304.864 650.708 305.168 651.594 305.168C652.479 305.168 653.226 304.864 653.834 304.256C654.442 303.627 654.746 302.875 654.746 302C654.746 301.115 654.442 300.368 653.834 299.76C653.226 299.141 652.479 298.832 651.594 298.832C650.708 298.832 649.962 299.141 649.354 299.76C648.746 300.368 648.442 301.115 648.442 302C648.442 302.875 648.746 303.627 649.354 304.256ZM660.413 304.704L663.005 298H664.125L660.701 306.736C660.381 307.547 659.933 308.171 659.357 308.608C658.792 309.056 658.162 309.253 657.469 309.2V308.208C658.429 308.325 659.16 307.771 659.661 306.544L659.869 306.048L656.285 298H657.405L660.413 304.704ZM671.637 298V304.976H672.757V308.144H671.701V306H665.173V308.144H664.117V304.976H665.093C665.637 304.251 665.909 303.243 665.909 301.952V298H671.637ZM666.373 304.976H670.581V299.024H666.965V301.952C666.965 303.189 666.768 304.197 666.373 304.976ZM680.018 301.488V298H681.074V306H680.018V302.512H675.41V306H674.354V298H675.41V301.488H680.018ZM687.004 297.808C688.198 297.808 689.153 298.229 689.868 299.072C690.604 299.904 690.972 300.891 690.972 302.032C690.972 302.085 690.961 302.251 690.94 302.528H683.916C684.022 303.328 684.364 303.968 684.94 304.448C685.516 304.928 686.236 305.168 687.1 305.168C688.316 305.168 689.174 304.715 689.676 303.808L690.604 304.352C690.252 304.928 689.766 305.381 689.148 305.712C688.54 306.032 687.852 306.192 687.084 306.192C685.825 306.192 684.801 305.797 684.012 305.008C683.222 304.219 682.828 303.216 682.828 302C682.828 300.795 683.217 299.797 683.996 299.008C684.774 298.208 685.777 297.808 687.004 297.808ZM687.004 298.832C686.172 298.832 685.473 299.077 684.908 299.568C684.353 300.059 684.022 300.704 683.916 301.504H689.884C689.766 300.651 689.441 299.995 688.908 299.536C688.353 299.067 687.718 298.832 687.004 298.832ZM698.315 301.488V298H699.371V306H698.315V302.512H693.707V306H692.651V298H693.707V301.488H698.315ZM707.268 301.488V298H708.324V306H707.268V302.512H702.66V306H701.604V298H702.66V301.488H707.268ZM717.262 304.992C716.44 305.792 715.448 306.192 714.286 306.192C713.102 306.192 712.104 305.792 711.294 304.992C710.483 304.181 710.078 303.184 710.078 302C710.078 300.816 710.483 299.824 711.294 299.024C712.104 298.213 713.102 297.808 714.286 297.808C715.459 297.808 716.451 298.213 717.262 299.024C718.083 299.824 718.494 300.816 718.494 302C718.494 303.173 718.083 304.171 717.262 304.992ZM712.046 304.256C712.654 304.864 713.4 305.168 714.286 305.168C715.171 305.168 715.918 304.864 716.526 304.256C717.134 303.627 717.438 302.875 717.438 302C717.438 301.115 717.134 300.368 716.526 299.76C715.918 299.141 715.171 298.832 714.286 298.832C713.4 298.832 712.654 299.141 712.046 299.76C711.438 300.368 711.134 301.115 711.134 302C711.134 302.875 711.438 303.627 712.046 304.256ZM723.957 297.808C725.151 297.808 726.106 298.229 726.821 299.072C727.557 299.904 727.925 300.891 727.925 302.032C727.925 302.085 727.914 302.251 727.893 302.528H720.869C720.975 303.328 721.317 303.968 721.893 304.448C722.469 304.928 723.189 305.168 724.053 305.168C725.269 305.168 726.127 304.715 726.629 303.808L727.557 304.352C727.205 304.928 726.719 305.381 726.101 305.712C725.493 306.032 724.805 306.192 724.037 306.192C722.778 306.192 721.754 305.797 720.965 305.008C720.175 304.219 719.781 303.216 719.781 302C719.781 300.795 720.17 299.797 720.949 299.008C721.727 298.208 722.73 297.808 723.957 297.808ZM723.957 298.832C723.125 298.832 722.426 299.077 721.861 299.568C721.306 300.059 720.975 300.704 720.869 301.504H726.837C726.719 300.651 726.394 299.995 725.861 299.536C725.306 299.067 724.671 298.832 723.957 298.832ZM627.84 317V323.976H628.96V327.144H627.904V325H621.376V327.144H620.32V323.976H621.296C621.84 323.251 622.112 322.243 622.112 320.952V317H627.84ZM622.576 323.976H626.784V318.024H623.168V320.952C623.168 322.189 622.971 323.197 622.576 323.976ZM631.614 320.04H633.806C634.542 320.04 635.171 320.275 635.694 320.744C636.216 321.203 636.478 321.795 636.478 322.52C636.478 323.256 636.216 323.853 635.694 324.312C635.192 324.771 634.563 325 633.806 325H630.558V317H631.614V320.04ZM637.598 325V317H638.654V325H637.598ZM631.614 323.976H633.806C634.264 323.976 634.648 323.843 634.958 323.576C635.267 323.299 635.422 322.947 635.422 322.52C635.422 322.093 635.267 321.747 634.958 321.48C634.648 321.203 634.264 321.064 633.806 321.064H631.614V323.976ZM644.501 320.856L647.621 325H646.357L643.861 321.704L641.365 325H640.101L643.237 320.856L640.309 317H641.573L643.861 320.024L646.149 317H647.413L644.501 320.856ZM655.375 318.568V317H656.431V325H655.375V323.432C654.639 324.605 653.562 325.192 652.143 325.192C651.002 325.192 650.026 324.787 649.215 323.976C648.415 323.165 648.015 322.173 648.015 321C648.015 319.827 648.415 318.835 649.215 318.024C650.026 317.213 651.002 316.808 652.143 316.808C653.562 316.808 654.639 317.395 655.375 318.568ZM649.983 323.256C650.591 323.864 651.338 324.168 652.223 324.168C653.108 324.168 653.855 323.864 654.463 323.256C655.071 322.627 655.375 321.875 655.375 321C655.375 320.115 655.071 319.368 654.463 318.76C653.855 318.141 653.108 317.832 652.223 317.832C651.338 317.832 650.591 318.141 649.983 318.76C649.375 319.368 649.071 320.115 649.071 321C649.071 321.875 649.375 322.627 649.983 323.256ZM664.331 320.488V317H665.387V325H664.331V321.512H659.723V325H658.667V317H659.723V320.488H664.331ZM668.676 323.16L673.444 317H674.34V325H673.284V318.84L668.516 325H667.62V317H668.676V323.16ZM680.269 316.808C681.464 316.808 682.418 317.229 683.133 318.072C683.869 318.904 684.237 319.891 684.237 321.032C684.237 321.085 684.226 321.251 684.205 321.528H677.181C677.288 322.328 677.629 322.968 678.205 323.448C678.781 323.928 679.501 324.168 680.365 324.168C681.581 324.168 682.44 323.715 682.941 322.808L683.869 323.352C683.517 323.928 683.032 324.381 682.413 324.712C681.805 325.032 681.117 325.192 680.349 325.192C679.09 325.192 678.066 324.797 677.277 324.008C676.488 323.219 676.093 322.216 676.093 321C676.093 319.795 676.482 318.797 677.261 318.008C678.04 317.208 679.042 316.808 680.269 316.808ZM680.269 317.832C679.437 317.832 678.738 318.077 678.173 318.568C677.618 319.059 677.288 319.704 677.181 320.504H683.149C683.032 319.651 682.706 318.995 682.173 318.536C681.618 318.067 680.984 317.832 680.269 317.832Z" fill="black"/>
<path d="M47.488 244.192C48.0427 244.427 48.48 244.784 48.8 245.264C49.12 245.744 49.28 246.283 49.28 246.88C49.28 247.744 48.976 248.48 48.368 249.088C47.76 249.696 47.024 250 46.16 250H41.28V238.8H45.792C46.6133 238.8 47.3227 239.099 47.92 239.696C48.5067 240.283 48.8 240.987 48.8 241.808C48.8 242.853 48.3627 243.648 47.488 244.192ZM45.792 239.856H42.4V243.76H45.792C46.304 243.76 46.7467 243.573 47.12 243.2C47.4933 242.805 47.68 242.341 47.68 241.808C47.68 241.285 47.4933 240.827 47.12 240.432C46.7467 240.048 46.304 239.856 45.792 239.856ZM42.4 248.944H46.16C46.7147 248.944 47.184 248.747 47.568 248.352C47.9627 247.957 48.16 247.467 48.16 246.88C48.16 246.304 47.9627 245.819 47.568 245.424C47.184 245.019 46.7147 244.816 46.16 244.816H42.4V248.944ZM52.0979 245.04H54.2899C55.0259 245.04 55.6552 245.275 56.1779 245.744C56.7005 246.203 56.9619 246.795 56.9619 247.52C56.9619 248.256 56.7005 248.853 56.1779 249.312C55.6765 249.771 55.0472 250 54.2899 250H51.0419V242H52.0979V245.04ZM58.0819 250V242H59.1379V250H58.0819ZM52.0979 248.976H54.2899C54.7485 248.976 55.1325 248.843 55.4419 248.576C55.7512 248.299 55.9059 247.947 55.9059 247.52C55.9059 247.093 55.7512 246.747 55.4419 246.48C55.1325 246.203 54.7485 246.064 54.2899 246.064H52.0979V248.976ZM65.1136 250.192C63.9083 250.192 62.9056 249.792 62.1056 248.992C61.3056 248.171 60.9056 247.173 60.9056 246C60.9056 244.816 61.3056 243.824 62.1056 243.024C62.9056 242.213 63.9083 241.808 65.1136 241.808C65.903 241.808 66.6123 242 67.2416 242.384C67.871 242.757 68.3296 243.264 68.6176 243.904L67.7536 244.4C67.5403 243.92 67.1936 243.541 66.7136 243.264C66.2443 242.976 65.711 242.832 65.1136 242.832C64.2283 242.832 63.4816 243.141 62.8736 243.76C62.2656 244.368 61.9616 245.115 61.9616 246C61.9616 246.875 62.2656 247.627 62.8736 248.256C63.4816 248.864 64.2283 249.168 65.1136 249.168C65.7003 249.168 66.2283 249.029 66.6976 248.752C67.1776 248.475 67.551 248.091 67.8176 247.6L68.6976 248.112C68.367 248.752 67.8816 249.259 67.2416 249.632C66.6016 250.005 65.8923 250.192 65.1136 250.192ZM76.8396 248.992C76.0183 249.792 75.0263 250.192 73.8636 250.192C72.6796 250.192 71.6823 249.792 70.8716 248.992C70.061 248.181 69.6556 247.184 69.6556 246C69.6556 244.816 70.061 243.824 70.8716 243.024C71.6823 242.213 72.6796 241.808 73.8636 241.808C75.037 241.808 76.029 242.213 76.8396 243.024C77.661 243.824 78.0716 244.816 78.0716 246C78.0716 247.173 77.661 248.171 76.8396 248.992ZM71.6236 248.256C72.2316 248.864 72.9783 249.168 73.8636 249.168C74.749 249.168 75.4956 248.864 76.1036 248.256C76.7116 247.627 77.0156 246.875 77.0156 246C77.0156 245.115 76.7116 244.368 76.1036 243.76C75.4956 243.141 74.749 242.832 73.8636 242.832C72.9783 242.832 72.2316 243.141 71.6236 243.76C71.0156 244.368 70.7116 245.115 70.7116 246C70.7116 246.875 71.0156 247.627 71.6236 248.256ZM82.0148 245.84L86.3028 250H84.8948L80.8948 246.144V250H79.8388V242H80.8948V245.536L84.7028 242H86.1428L82.0148 245.84ZM93.8281 243.568V242H94.8841V250H93.8281V248.432C93.0921 249.605 92.0148 250.192 90.5961 250.192C89.4548 250.192 88.4788 249.787 87.6681 248.976C86.8681 248.165 86.4681 247.173 86.4681 246C86.4681 244.827 86.8681 243.835 87.6681 243.024C88.4788 242.213 89.4548 241.808 90.5961 241.808C92.0148 241.808 93.0921 242.395 93.8281 243.568ZM88.4361 248.256C89.0441 248.864 89.7908 249.168 90.6761 249.168C91.5615 249.168 92.3081 248.864 92.9161 248.256C93.5241 247.627 93.8281 246.875 93.8281 246C93.8281 245.115 93.5241 244.368 92.9161 243.76C92.3081 243.141 91.5615 242.832 90.6761 242.832C89.7908 242.832 89.0441 243.141 88.4361 243.76C87.8281 244.368 87.5241 245.115 87.5241 246C87.5241 246.875 87.8281 247.627 88.4361 248.256ZM99.632 242H102.88V250H101.824V246.928H100.448L97.984 250H96.64L99.168 246.896C98.5173 246.8 97.984 246.533 97.568 246.096C97.1627 245.648 96.96 245.109 96.96 244.48C96.96 243.765 97.216 243.173 97.728 242.704C98.2613 242.235 98.896 242 99.632 242ZM99.632 245.936H101.824V243.024H99.632C99.1733 243.024 98.7893 243.163 98.48 243.44C98.1707 243.707 98.016 244.053 98.016 244.48C98.016 244.907 98.1707 245.259 98.48 245.536C98.7893 245.803 99.1733 245.936 99.632 245.936ZM3.81625 261H10.5363V262.024H7.70425V269H6.64825V262.024H3.81625V261ZM15.2066 260.808C16.4013 260.808 17.356 261.229 18.0706 262.072C18.8066 262.904 19.1746 263.891 19.1746 265.032C19.1746 265.085 19.164 265.251 19.1426 265.528H12.1186C12.2253 266.328 12.5666 266.968 13.1426 267.448C13.7186 267.928 14.4386 268.168 15.3026 268.168C16.5186 268.168 17.3773 267.715 17.8786 266.808L18.8066 267.352C18.4546 267.928 17.9693 268.381 17.3506 268.712C16.7426 269.032 16.0546 269.192 15.2866 269.192C14.028 269.192 13.004 268.797 12.2146 268.008C11.4253 267.219 11.0306 266.216 11.0306 265C11.0306 263.795 11.42 262.797 12.1986 262.008C12.9773 261.208 13.98 260.808 15.2066 260.808ZM15.2066 261.832C14.3746 261.832 13.676 262.077 13.1106 262.568C12.556 263.059 12.2253 263.704 12.1186 264.504H18.0866C17.9693 263.651 17.644 262.995 17.1106 262.536C16.556 262.067 15.9213 261.832 15.2066 261.832ZM27.4784 261H28.6944V269H27.6384V262.616L24.8384 267.16H24.7104L21.9104 262.616V269H20.8544V261H22.0704L24.7744 265.384L27.4784 261ZM30.9325 261H37.6525V269H36.5965V262.024H31.9885V269H30.9325V261ZM43.5816 260.808C44.7763 260.808 45.731 261.229 46.4456 262.072C47.1816 262.904 47.5496 263.891 47.5496 265.032C47.5496 265.085 47.539 265.251 47.5176 265.528H40.4936C40.6003 266.328 40.9416 266.968 41.5176 267.448C42.0936 267.928 42.8136 268.168 43.6776 268.168C44.8936 268.168 45.7523 267.715 46.2536 266.808L47.1816 267.352C46.8296 267.928 46.3443 268.381 45.7256 268.712C45.1176 269.032 44.4296 269.192 43.6616 269.192C42.403 269.192 41.379 268.797 40.5896 268.008C39.8003 267.219 39.4056 266.216 39.4056 265C39.4056 263.795 39.795 262.797 40.5736 262.008C41.3523 261.208 42.355 260.808 43.5816 260.808ZM43.5816 261.832C42.7496 261.832 42.051 262.077 41.4856 262.568C40.931 263.059 40.6003 263.704 40.4936 264.504H46.4616C46.3443 263.651 46.019 262.995 45.4856 262.536C44.931 262.067 44.2963 261.832 43.5816 261.832ZM53.5174 260.808C54.6587 260.808 55.6294 261.213 56.4294 262.024C57.24 262.835 57.6454 263.827 57.6454 265C57.6454 266.173 57.24 267.165 56.4294 267.976C55.6294 268.787 54.6587 269.192 53.5174 269.192C52.0987 269.192 51.0214 268.605 50.2854 267.432V272.2H49.2294V261H50.2854V262.568C51.0214 261.395 52.0987 260.808 53.5174 260.808ZM51.1974 267.256C51.8054 267.864 52.552 268.168 53.4374 268.168C54.3227 268.168 55.0694 267.864 55.6774 267.256C56.2854 266.627 56.5894 265.875 56.5894 265C56.5894 264.115 56.2854 263.368 55.6774 262.76C55.0694 262.141 54.3227 261.832 53.4374 261.832C52.552 261.832 51.8054 262.141 51.1974 262.76C50.5894 263.368 50.2854 264.115 50.2854 265C50.2854 265.875 50.5894 266.627 51.1974 267.256ZM66.2812 262.568V261H67.3373V269H66.2812V267.432C65.5453 268.605 64.4679 269.192 63.0493 269.192C61.9079 269.192 60.9319 268.787 60.1213 267.976C59.3213 267.165 58.9213 266.173 58.9213 265C58.9213 263.827 59.3213 262.835 60.1213 262.024C60.9319 261.213 61.9079 260.808 63.0493 260.808C64.4679 260.808 65.5453 261.395 66.2812 262.568ZM60.8893 267.256C61.4973 267.864 62.2439 268.168 63.1293 268.168C64.0146 268.168 64.7613 267.864 65.3693 267.256C65.9773 266.627 66.2812 265.875 66.2812 265C66.2812 264.115 65.9773 263.368 65.3693 262.76C64.7613 262.141 64.0146 261.832 63.1293 261.832C62.2439 261.832 61.4973 262.141 60.8893 262.76C60.2813 263.368 59.9773 264.115 59.9773 265C59.9773 265.875 60.2813 266.627 60.8893 267.256ZM68.6131 261H75.3331V262.024H72.5011V269H71.4451V262.024H68.6131V261ZM79.788 267.704L82.38 261H83.5L80.076 269.736C79.756 270.547 79.308 271.171 78.732 271.608C78.1667 272.056 77.5373 272.253 76.844 272.2V271.208C77.804 271.325 78.5347 270.771 79.036 269.544L79.244 269.048L75.66 261H76.78L79.788 267.704ZM89.0643 260.808C90.2056 260.808 91.1763 261.213 91.9763 262.024C92.7869 262.835 93.1923 263.827 93.1923 265C93.1923 266.173 92.7869 267.165 91.9763 267.976C91.1763 268.787 90.2056 269.192 89.0643 269.192C87.6456 269.192 86.5683 268.605 85.8323 267.432V272.2H84.7763V261H85.8323V262.568C86.5683 261.395 87.6456 260.808 89.0643 260.808ZM86.7443 267.256C87.3523 267.864 88.0989 268.168 88.9843 268.168C89.8696 268.168 90.6163 267.864 91.2243 267.256C91.8323 266.627 92.1363 265.875 92.1363 265C92.1363 264.115 91.8323 263.368 91.2243 262.76C90.6163 262.141 89.8696 261.832 88.9843 261.832C88.0989 261.832 87.3523 262.141 86.7443 262.76C86.1363 263.368 85.8323 264.115 85.8323 265C85.8323 265.875 86.1363 266.627 86.7443 267.256ZM101.828 262.568V261H102.884V269H101.828V267.432C101.092 268.605 100.015 269.192 98.5961 269.192C97.4548 269.192 96.4788 268.787 95.6681 267.976C94.8681 267.165 94.4681 266.173 94.4681 265C94.4681 263.827 94.8681 262.835 95.6681 262.024C96.4788 261.213 97.4548 260.808 98.5961 260.808C100.015 260.808 101.092 261.395 101.828 262.568ZM96.4361 267.256C97.0441 267.864 97.7908 268.168 98.6761 268.168C99.5615 268.168 100.308 267.864 100.916 267.256C101.524 266.627 101.828 265.875 101.828 265C101.828 264.115 101.524 263.368 100.916 262.76C100.308 262.141 99.5615 261.832 98.6761 261.832C97.7908 261.832 97.0441 262.141 96.4361 262.76C95.8281 263.368 95.5241 264.115 95.5241 265C95.5241 265.875 95.8281 266.627 96.4361 267.256Z" fill="black"/>
<path d="M620.4 242.28H623.44C624.357 242.28 625.147 242.611 625.808 243.272C626.469 243.933 626.8 244.723 626.8 245.64C626.8 246.568 626.469 247.363 625.808 248.024C625.157 248.675 624.368 249 623.44 249H619.28V237.8H625.84V238.856H620.4V242.28ZM620.4 247.944H623.44C624.059 247.944 624.587 247.72 625.024 247.272C625.461 246.813 625.68 246.269 625.68 245.64C625.68 245.021 625.461 244.483 625.024 244.024C624.597 243.565 624.069 243.336 623.44 243.336H620.4V247.944ZM635.183 247.992C634.362 248.792 633.37 249.192 632.207 249.192C631.023 249.192 630.026 248.792 629.215 247.992C628.405 247.181 627.999 246.184 627.999 245C627.999 243.816 628.405 242.824 629.215 242.024C630.026 241.213 631.023 240.808 632.207 240.808C633.381 240.808 634.373 241.213 635.183 242.024C636.005 242.824 636.415 243.816 636.415 245C636.415 246.173 636.005 247.171 635.183 247.992ZM629.967 247.256C630.575 247.864 631.322 248.168 632.207 248.168C633.093 248.168 633.839 247.864 634.447 247.256C635.055 246.627 635.359 245.875 635.359 245C635.359 244.115 635.055 243.368 634.447 242.76C633.839 242.141 633.093 241.832 632.207 241.832C631.322 241.832 630.575 242.141 629.967 242.76C629.359 243.368 629.055 244.115 629.055 245C629.055 245.875 629.359 246.627 629.967 247.256ZM638.702 241H644.43V249H643.374V242.024H639.758V245.592C639.758 246.925 639.502 247.843 638.99 248.344C638.489 248.845 637.795 249.064 636.91 249V248.008C637.529 248.072 637.982 247.923 638.27 247.56C638.558 247.197 638.702 246.541 638.702 245.592V241ZM647.723 244.04H649.915C650.651 244.04 651.28 244.275 651.803 244.744C652.326 245.203 652.587 245.795 652.587 246.52C652.587 247.256 652.326 247.853 651.803 248.312C651.302 248.771 650.672 249 649.915 249H646.667V241H647.723V244.04ZM647.723 247.976H649.915C650.374 247.976 650.758 247.843 651.067 247.576C651.376 247.299 651.531 246.947 651.531 246.52C651.531 246.093 651.376 245.747 651.067 245.48C650.758 245.203 650.374 245.064 649.915 245.064H647.723V247.976ZM663.271 244.888C664.145 245.208 664.583 245.832 664.583 246.76C664.583 247.421 664.359 247.96 663.911 248.376C663.473 248.792 662.86 249 662.071 249H658.183V241H661.751C662.519 241 663.116 241.197 663.543 241.592C663.98 241.987 664.199 242.504 664.199 243.144C664.199 243.944 663.889 244.525 663.271 244.888ZM661.751 242.024H659.239V244.456H661.751C662.679 244.456 663.143 244.04 663.143 243.208C663.143 242.835 663.02 242.547 662.775 242.344C662.54 242.131 662.199 242.024 661.751 242.024ZM659.239 247.976H662.071C662.54 247.976 662.897 247.864 663.143 247.64C663.399 247.416 663.527 247.101 663.527 246.696C663.527 246.312 663.399 246.013 663.143 245.8C662.897 245.587 662.54 245.48 662.071 245.48H659.239V247.976ZM670.183 241H675.303V242.024H671.239V249H670.183V241ZM682.98 247.992C682.159 248.792 681.167 249.192 680.004 249.192C678.82 249.192 677.823 248.792 677.012 247.992C676.202 247.181 675.796 246.184 675.796 245C675.796 243.816 676.202 242.824 677.012 242.024C677.823 241.213 678.82 240.808 680.004 240.808C681.178 240.808 682.17 241.213 682.98 242.024C683.802 242.824 684.212 243.816 684.212 245C684.212 246.173 683.802 247.171 682.98 247.992ZM677.764 247.256C678.372 247.864 679.119 248.168 680.004 248.168C680.89 248.168 681.636 247.864 682.244 247.256C682.852 246.627 683.156 245.875 683.156 245C683.156 244.115 682.852 243.368 682.244 242.76C681.636 242.141 680.89 241.832 680.004 241.832C679.119 241.832 678.372 242.141 677.764 242.76C677.156 243.368 676.852 244.115 676.852 245C676.852 245.875 677.156 246.627 677.764 247.256ZM690.267 240.808C691.409 240.808 692.379 241.213 693.179 242.024C693.99 242.835 694.395 243.827 694.395 245C694.395 246.173 693.99 247.165 693.179 247.976C692.379 248.787 691.409 249.192 690.267 249.192C688.849 249.192 687.771 248.605 687.035 247.432V252.2H685.979V241H687.035V242.568C687.771 241.395 688.849 240.808 690.267 240.808ZM687.947 247.256C688.555 247.864 689.302 248.168 690.187 248.168C691.073 248.168 691.819 247.864 692.427 247.256C693.035 246.627 693.339 245.875 693.339 245C693.339 244.115 693.035 243.368 692.427 242.76C691.819 242.141 691.073 241.832 690.187 241.832C689.302 241.832 688.555 242.141 687.947 242.76C687.339 243.368 687.035 244.115 687.035 245C687.035 245.875 687.339 246.627 687.947 247.256ZM696.671 241H702.399V249H701.343V242.024H697.727V245.592C697.727 246.925 697.471 247.843 696.959 248.344C696.457 248.845 695.764 249.064 694.879 249V248.008C695.497 248.072 695.951 247.923 696.239 247.56C696.527 247.197 696.671 246.541 696.671 245.592V241ZM708.332 240.808C709.526 240.808 710.481 241.229 711.196 242.072C711.932 242.904 712.3 243.891 712.3 245.032C712.3 245.085 712.289 245.251 712.268 245.528H705.244C705.35 246.328 705.692 246.968 706.268 247.448C706.844 247.928 707.564 248.168 708.428 248.168C709.644 248.168 710.502 247.715 711.004 246.808L711.932 247.352C711.58 247.928 711.094 248.381 710.476 248.712C709.868 249.032 709.18 249.192 708.412 249.192C707.153 249.192 706.129 248.797 705.34 248.008C704.55 247.219 704.156 246.216 704.156 245C704.156 243.795 704.545 242.797 705.324 242.008C706.102 241.208 707.105 240.808 708.332 240.808ZM708.332 241.832C707.5 241.832 706.801 242.077 706.236 242.568C705.681 243.059 705.35 243.704 705.244 244.504H711.212C711.094 243.651 710.769 242.995 710.236 242.536C709.681 242.067 709.046 241.832 708.332 241.832Z" fill="black"/>
<path d="M66.544 323.512C65.424 324.632 64.0533 325.192 62.432 325.192C60.8107 325.192 59.44 324.632 58.32 323.512C57.2 322.371 56.64 321 56.64 319.4C56.64 317.789 57.2 316.424 58.32 315.304C59.44 314.173 60.8107 313.608 62.432 313.608C64.0533 313.608 65.424 314.173 66.544 315.304C67.664 316.424 68.224 317.789 68.224 319.4C68.224 321 67.664 322.371 66.544 323.512ZM57.76 319.4C57.76 320.723 58.208 321.837 59.104 322.744C60 323.651 61.1093 324.104 62.432 324.104C63.7547 324.104 64.864 323.651 65.76 322.744C66.656 321.837 67.104 320.723 67.104 319.4C67.104 318.088 66.656 316.979 65.76 316.072C64.864 315.155 63.7547 314.696 62.432 314.696C61.1093 314.696 60 315.155 59.104 316.072C58.208 316.979 57.76 318.088 57.76 319.4ZM74.1074 320.888C75.0354 321.24 75.4994 321.88 75.4994 322.808C75.4994 323.48 75.238 324.045 74.7154 324.504C74.214 324.963 73.478 325.192 72.5074 325.192C70.886 325.192 69.83 324.552 69.3394 323.272L70.2354 322.744C70.5767 323.693 71.334 324.168 72.5074 324.168C73.1154 324.168 73.59 324.04 73.9314 323.784C74.2727 323.517 74.4434 323.171 74.4434 322.744C74.4434 322.36 74.3047 322.056 74.0274 321.832C73.75 321.597 73.3767 321.48 72.9074 321.48H71.7394V320.456H72.5874C73.046 320.456 73.4034 320.344 73.6594 320.12C73.926 319.885 74.0594 319.565 74.0594 319.16C74.0594 318.776 73.8994 318.461 73.5794 318.216C73.27 317.96 72.8594 317.832 72.3474 317.832C71.3554 317.832 70.6887 318.232 70.3474 319.032L69.4674 318.52C70.0007 317.379 70.9607 316.808 72.3474 316.808C73.2007 316.808 73.8727 317.032 74.3634 317.48C74.8647 317.917 75.1154 318.456 75.1154 319.096C75.1154 319.917 74.7794 320.515 74.1074 320.888ZM82.7684 320.488V317H83.8244V325H82.7684V321.512H78.1604V325H77.1044V317H78.1604V320.488H82.7684ZM92.7615 323.992C91.9402 324.792 90.9482 325.192 89.7855 325.192C88.6015 325.192 87.6042 324.792 86.7935 323.992C85.9828 323.181 85.5775 322.184 85.5775 321C85.5775 319.816 85.9828 318.824 86.7935 318.024C87.6042 317.213 88.6015 316.808 89.7855 316.808C90.9588 316.808 91.9508 317.213 92.7615 318.024C93.5828 318.824 93.9935 319.816 93.9935 321C93.9935 322.173 93.5828 323.171 92.7615 323.992ZM87.5455 323.256C88.1535 323.864 88.9002 324.168 89.7855 324.168C90.6708 324.168 91.4175 323.864 92.0255 323.256C92.6335 322.627 92.9375 321.875 92.9375 321C92.9375 320.115 92.6335 319.368 92.0255 318.76C91.4175 318.141 90.6708 317.832 89.7855 317.832C88.9002 317.832 88.1535 318.141 87.5455 318.76C86.9375 319.368 86.6335 320.115 86.6335 321C86.6335 321.875 86.9375 322.627 87.5455 323.256ZM99.3126 325.192C98.1713 325.192 97.2113 324.813 96.4326 324.056C95.6646 323.288 95.2806 322.296 95.2806 321.08C95.2806 319.715 95.4833 318.669 95.8886 317.944C96.294 317.208 97.1153 316.541 98.3526 315.944C98.7473 315.763 99.0566 315.624 99.2806 315.528C99.654 315.379 99.9473 315.251 100.161 315.144C101.089 314.717 101.558 314.189 101.569 313.56L102.401 314.04C102.347 314.307 102.262 314.547 102.145 314.76C102.006 314.995 101.867 315.181 101.729 315.32C101.601 315.459 101.398 315.608 101.121 315.768C100.939 315.875 100.721 315.992 100.465 316.12L99.6646 316.456L98.9126 316.776C98.1766 317.096 97.6273 317.432 97.2646 317.784C96.9126 318.125 96.662 318.573 96.5126 319.128C96.854 318.669 97.302 318.323 97.8566 318.088C98.4113 317.843 98.9713 317.72 99.5366 317.72C100.603 317.72 101.483 318.072 102.177 318.776C102.881 319.469 103.233 320.36 103.233 321.448C103.233 322.525 102.859 323.421 102.113 324.136C101.377 324.84 100.443 325.192 99.3126 325.192ZM97.2326 323.352C97.7873 323.875 98.4806 324.136 99.3126 324.136C100.145 324.136 100.827 323.885 101.361 323.384C101.905 322.872 102.177 322.227 102.177 321.448C102.177 320.659 101.921 320.013 101.409 319.512C100.907 319 100.235 318.744 99.3926 318.744C98.6353 318.744 97.9473 318.984 97.3286 319.464C96.71 319.923 96.4006 320.552 96.4006 321.352C96.4006 322.163 96.678 322.829 97.2326 323.352Z" fill="black"/>
<circle cx="272.5" cy="320.5" r="6.5" fill="white"/>
<circle cx="272.5" cy="320.5" r="3.5" fill="#EA6371"/>
<circle cx="389.5" cy="300.5" r="6.5" fill="white"/>
<circle cx="389.5" cy="300.5" r="3.5" fill="#EA6371"/>
<circle cx="363.5" cy="243.5" r="6.5" fill="white"/>
<circle cx="363.5" cy="243.5" r="3.5" fill="#EA6371"/>
<circle cx="369.5" cy="176.5" r="6.5" fill="white"/>
<circle cx="369.5" cy="176.5" r="3.5" fill="#EA6371"/>
<line x1="306" y1="139.5" x2="167" y2="139.5" stroke="white"/>
<line x1="294" y1="139.5" x2="148" y2="139.5" stroke="#EA6371"/>
<line x1="550" y1="176.5" x2="376" y2="176.5" stroke="white"/>
<line x1="609" y1="243.5" x2="370" y2="243.5" stroke="white"/>
<line x1="609" y1="301.5" x2="395" y2="301.5" stroke="white"/>
<line x1="202" y1="250.5" x2="121" y2="250.5" stroke="white"/>
<line x1="267" y1="320.5" x2="128" y2="320.5" stroke="white"/>
<line x1="190" y1="250.5" x2="119" y2="250.5" stroke="#EA6371"/>
<line x1="253" y1="320.5" x2="121" y2="320.5" stroke="#EA6371"/>
<line x1="603" y1="301.5" x2="473" y2="301.5" stroke="#EA6371"/>
<line x1="601" y1="243.5" x2="454" y2="243.5" stroke="#EA6371"/>
<line x1="571" y1="176.5" x2="454" y2="176.5" stroke="#EA6371"/>
</svg>
